<svg id="Layer_1" data-name="Layer 1" xmlns="http://www.w3.org/2000/svg" viewBox="0 0 128 128"><defs><style>.cls-1{fill:#fff;}.cls-2{font-size:9.92px;font-family:Roboto-Bold, Roboto;font-weight:700;}.cls-2,.cls-3{fill:#0c0d0e;}.cls-3{font-size:8.61px;font-family:Roboto-Regular, Roboto;}.cls-4{letter-spacing:-0.06em;}</style></defs><rect class="cls-1" width="128" height="128" rx="9.57"/><path d="M100.66,40.91v9.21a.89.89,0,0,1-1.09.55c-.52-.17-.6-.6-.59-1.08,0-2.45,0-4.9,0-7.35v-.79H97V57.87h2c0-1.26,0-2.49,0-3.72,0-.47,0-.91.54-1.12s.84.11,1.14.45V78.53a2,2,0,0,1-2.07,1.26q-26.67,0-53.34,0c-1.53,0-2.09-.55-2.09-2.09V41.74c0-1.51.5-2,2-2H55.9l-.68-3.23L52.65,37a1.44,1.44,0,0,1-1.54-.57,5,5,0,0,1-.36-.66l-1.16.26c0,.21.06.37.08.53a1.09,1.09,0,0,1-.82,1.24c-.93.23-1.86.43-2.8.59a1.08,1.08,0,0,1-1.32-.92c-.1-.43-.19-.87-.28-1.31l-.93-4.33c-.18-.86.09-1.43.8-1.61.89-.21,1.78-.4,2.69-.57a1.1,1.1,0,0,1,1.39.89c0,.13.07.25.11.41l1.18-.24c0-.83.15-1.56,1-1.8,1.22-.34,2.48-.58,3.73-.81a.75.75,0,0,1,.89.67.8.8,0,0,1-.54.94,5.25,5.25,0,0,1-.71.16l-2.61.57,1,4.86.58-.1L64.49,32.8A2.08,2.08,0,0,1,67,34c.28.49.54,1,.81,1.46,1.28-.33,1.5-.82.9-1.93-.47-.85-.92-1.71-1.4-2.56a5.3,5.3,0,0,0-5.67-2.61c-1,.18-1.94.41-2.92.58a1,1,0,0,1-.73-.08,1.06,1.06,0,0,1-.38-.79,1.16,1.16,0,0,1,.67-.7c.93-.27,1.89-.44,2.84-.64a7,7,0,0,1,7.65,3.42c.58,1,1.11,2,1.64,3a2.55,2.55,0,0,1-1.24,3.62c-.22.11-.45.2-.67.29a1.51,1.51,0,0,1-2.16-.76c-.27-.49-.52-1-.82-1.47-.1-.16-.35-.38-.49-.35-1.23.23-2.44.5-3.7.77.29,1.36.58,2.65.83,3.95.08.43.23.58.68.58,2.92,0,5.84,0,8.76,0h.63v-.66c0-.79,0-1.57,0-2.36a4.36,4.36,0,0,1,8.56-.85A8.09,8.09,0,0,1,81,37.63c0,.68,0,1.37,0,2.09.89,0,1.7,0,2.5,0a.56.56,0,0,0,.64-.46c.45-1.27.91-2.53,1.38-3.79a1.54,1.54,0,0,1,1.76-1.23h2.08a1.56,1.56,0,0,1,1.76,1.23c.46,1.27.93,2.53,1.37,3.8a.57.57,0,0,0,.64.45c1.87,0,3.75,0,5.62,0A1.77,1.77,0,0,1,100.66,40.91ZM44.87,78.05H98.93V59.62H44.87ZM59.74,57.87c0-.18,0-.33-.08-.48-.8-3.8-1.62-7.6-2.41-11.4-.09-.4-.24-.5-.63-.5-2.52,0-5,0-7.57,0a4.75,4.75,0,0,0-.51,0v.66c0,1.16,0,2.32,0,3.48a.9.9,0,0,1-.64,1c-.59.16-1-.25-1-1V41.44h-2V57.88h2V54c0-.65.33-1,.86-1s.82.4.82,1c0,1,0,2.09,0,3.14v.75ZM72.19,45.54h-8.7c.86,4,1.72,8,2.55,12,.08.37.28.36.56.36h6.28a3.49,3.49,0,0,0,.44,0V54a12.37,12.37,0,0,1-1.53-.16,2.55,2.55,0,0,1-1.91-2.41,2.58,2.58,0,0,1,1.86-2.58c.16-.06.43-.2.43-.31C72.21,47.52,72.19,46.53,72.19,45.54Zm1.73,3.13.52,0c1.42,0,2.84,0,4.26,0,.46,0,.61-.11.61-.59,0-1.88,0-3.77,0-5.66s0-3.55,0-5.33a2.7,2.7,0,1,0-5.4.08c0,3.65,0,7.29,0,10.94C73.89,48.31,73.91,48.47,73.92,48.67ZM64.4,57.91,59.65,35.55l-2.77.59c0,.14,0,.23.06.32q1.62,7.62,3.23,15.24c.4,1.88.79,3.76,1.21,5.64,0,.21.24.54.38.55C62.61,57.94,63.47,57.91,64.4,57.91Zm24.81,0v-.63c0-4.12,0-8.23,0-12.35A3.06,3.06,0,0,1,89.83,43a14,14,0,0,0,1.1-1.55,1.36,1.36,0,0,0,.16-1c-.46-1.4-1-2.78-1.52-4.16a.68.68,0,0,0-.46-.33c-.52,0-1,0-1.57,0a.48.48,0,0,0-.57.39,16.21,16.21,0,0,1-.91,2.47,3,3,0,0,0,.56,4l0,0a3.26,3.26,0,0,1,.74,2.29c0,4,0,8.08,0,12.12v.64Zm-3.55,0V45.53H81v3.16l.17.07a2.57,2.57,0,0,1,2.08,2.93,2.62,2.62,0,0,1-2.69,2.22h-.76v4Zm9.59,0V45.54H90.92V57.87ZM72.16,41.45H62.63c.14.67.3,1.28.39,1.9.06.39.23.48.59.47h8.55ZM48.55,43.79h8.22l-.5-2.34H48.55Zm28,8.43H80.5c.71,0,1.1-.34,1.1-.92s-.39-.91-1.11-.91H72.7c-.74,0-1.12.32-1.13.89s.39.94,1.13.94ZM46.83,31.44l-1.59.34,1,4.88,1.38-.28.21-.09a1.07,1.07,0,0,0,0-.18c-.19-1,.07-1.41,1.07-1.64l1.54-.35-.39-1.73-.88.19-.82.16A1.11,1.11,0,0,1,47,31.85C46.92,31.72,46.88,31.6,46.83,31.44Zm28.26,22.5v3.92h3V53.94ZM81,43.77h4.16c-.47-.76-.91-1.49-1.36-2.21a.37.37,0,0,0-.27-.15H81Zm10.4,0h3.83V41.41H93.08a.4.4,0,0,0-.28.12C92.34,42.26,91.89,43,91.41,43.79Z" transform="translate(-7.91 -7.64)"/><path d="M71.92,69.68H66.54c-1.13,0-1.66-.52-1.67-1.64s0-2.17,0-3.26a1.45,1.45,0,0,1,1.65-1.61q5.39,0,10.77,0A1.46,1.46,0,0,1,79,64.82c0,1.05,0,2.09,0,3.14,0,1.2-.51,1.71-1.7,1.72Zm5.32-4.79H66.59V68H77.24Z" transform="translate(-7.91 -7.64)"/><text class="cls-2" transform="translate(53.33 95.94)">Alat</text><text class="cls-3" transform="translate(37.77 106.78)"><tspan class="cls-4">T</tspan><tspan x="4.68" y="0">ambah Alat</tspan></text></svg>