<svg id="Layer_1" data-name="Layer 1" xmlns="http://www.w3.org/2000/svg" viewBox="0 0 128 128"><defs><style>.cls-1{fill:#fff;}.cls-2{fill:#29abe2;}.cls-3{font-size:11.19px;font-family:Roboto-Bold, Roboto;font-weight:700;}.cls-3,.cls-5{fill:#0c0d0e;}.cls-4{letter-spacing:-0.01em;}.cls-5{font-size:8.61px;font-family:Roboto-Regular, Roboto;}.cls-6{letter-spacing:-0.01em;}</style></defs><rect class="cls-1" width="128" height="128" rx="9.57"/><path class="cls-2" d="M64.11,57.48s-.57-4.35,1-5.61,5.13-.93,5.13-.93l2.81,2,3.41-2s5.12.78,5.72,2,0,4.59,0,4.59l-.73,1.66s-5.93,3.17-9.19,2.49S64.35,60.32,64.11,57.48Z" transform="translate(-8.14 -8.07)"/><path d="M63.54,68.56c-1.17-1.22-2.25-2.29-3.27-3.42A36.28,36.28,0,0,1,52.7,53.33c-3.58-9.75.41-20.09,9.68-25.15a22,22,0,0,1,28.87,7c4.08,6.22,4.36,12.84,1.39,19.61a41.66,41.66,0,0,1-9.13,12.57l-1.07,1.1h1.88c4.07,0,8.14,0,12.21,0a1.6,1.6,0,0,1,1.62.95c2.87,5.35,5.79,10.67,8.67,16a4.75,4.75,0,0,1,.48,1.74,25.11,25.11,0,0,1,.1,2.6c0,.67-.29,1-1,1-.16,0-.32,0-.48,0H40c-1.3,0-1.39-.16-1.45-1.45a9.24,9.24,0,0,1,1.56-5.53c3-4.77,5.78-9.64,8.62-14.48a1.51,1.51,0,0,1,1.49-.83c4.16,0,8.32,0,12.48,0Zm29.4-22.21A18.25,18.25,0,0,0,89.4,35.41,20.47,20.47,0,0,0,58.66,33a17.81,17.81,0,0,0-5.28,16.66,25.76,25.76,0,0,0,4.94,10.51A61.09,61.09,0,0,0,72.55,73.7a.62.62,0,0,0,.89,0c2.18-1.74,4.43-3.39,6.53-5.22A44.52,44.52,0,0,0,90.18,56.1,20.76,20.76,0,0,0,92.94,46.35Zm9.22,34c-.64-1.18-1.22-2.2-1.75-3.25a.9.9,0,0,0-.94-.57l-12.35,0a1.13,1.13,0,0,1-1.29-1c-.39-1.62-.87-3.22-1.28-4.83-.1-.43-.27-.61-.73-.59-.89,0-1.78,0-2.67,0a1.88,1.88,0,0,0-1,.36c-2,1.49-3.89,3-5.86,4.53-1.32,1-1.37,1-2.66,0-2-1.47-3.87-3-5.81-4.48a1.64,1.64,0,0,0-.9-.36c-4.76,0-9.51,0-14.27,0a.81.81,0,0,0-.8.46c-1.18,2-2.37,4-3.56,6-.09.15-.16.31-.29.56H58.72c2.83,0,5.67,0,8.5,0,.81,0,1.09.31,1,1.09-.09,1-.19,1.91-.28,2.86-.15,1.54-.3,3.08-.45,4.65H79.71c0-1.43,0-2.82,0-4.21,0-1.09.18-1.27,1.28-1.27h21.17ZM40.85,85.85h25l.69-7H62.59q-8.46,0-16.93,0a1,1,0,0,0-1,.59c-1,1.7-2,3.38-3,5.06C41.38,84.94,41.14,85.37,40.85,85.85Zm64.88,1.74H40.24v1.56h65.49ZM81.37,85.85h23.8c-.63-1.15-1.23-2.22-1.79-3.32a1,1,0,0,0-1-.59L82.1,82c-.24,0-.48,0-.73,0ZM99.2,74.93c-.79-1.47-1.54-2.8-2.23-4.15a1,1,0,0,0-1-.59c-2.63,0-5.25,0-7.88,0h-2c.41,1.55.79,3,1.21,4.49,0,.12.3.25.46.25C91.54,74.93,95.31,74.93,99.2,74.93Z" transform="translate(-8.14 -8.07)"/><path d="M72.93,62.62A16,16,0,1,1,89,46.53,16,16,0,0,1,72.93,62.62Zm3.26-12.89c.71.16,1.43.3,2.13.5a19.42,19.42,0,0,1,2.08.68,4.47,4.47,0,0,1,2.86,4.14c0,.49,0,1,0,1.55a14.39,14.39,0,1,0-20.57,0v-1.2A4.51,4.51,0,0,1,66,50.75c1.23-.41,2.49-.72,3.77-1.09a1,1,0,0,0-.46-1.15,5.67,5.67,0,0,1-2.08-3.3,2.24,2.24,0,0,0-.51-1,2,2,0,0,1-.25-2.62,1.74,1.74,0,0,0,.41-1.48,6.11,6.11,0,0,1,9.48-5.56,5.9,5.9,0,0,1,2.7,5.64,1.71,1.71,0,0,0,.18,1.07,2.07,2.07,0,0,1-.19,3.09,1.32,1.32,0,0,0-.33.63,5.47,5.47,0,0,1-2.11,3.49A1,1,0,0,0,76.19,49.73ZM78,43l-.36.13c-.76.29-1.15.09-1.36-.71-.07-.29-.13-.58-.21-.87a4.83,4.83,0,0,0-1.5-2.43,5.88,5.88,0,0,1-4.19,1.67c-.2.75-.18,1.64-.61,2s-1.28.14-1.89.18a2.72,2.72,0,0,1,1,1.92,4.18,4.18,0,0,0,4.28,3.3,4.11,4.11,0,0,0,3.93-3.54C77.18,43.93,77.17,43.23,78,43ZM67.62,60l2.94.85A40.14,40.14,0,0,0,71,55.26l-.5.19c-1.2.52-1.53.32-1.7-1-.12-.9-.25-1.8-.39-2.78-.78.25-1.5.45-2.2.71a2.83,2.83,0,0,0-1.92,2.73v1.92c0,1.16.45,1.69,1.65,1.94V58.3q0-1.19.81-1.2c.54,0,.83.39.83,1.17C67.63,58.81,67.62,59.36,67.62,60Zm9.88-8.3c-.13,1-.25,1.82-.37,2.67-.21,1.47-.45,1.61-1.8,1.08a2,2,0,0,0-.26,0,34.12,34.12,0,0,0,.37,5.38c.87-.25,1.63-.48,2.4-.68.47-.11.69-.33.63-.85a9,9,0,0,1,0-1.37.77.77,0,0,1,.82-.82.78.78,0,0,1,.81.84c0,.35,0,.7,0,1.15a6.44,6.44,0,0,1,.8-.5,1.15,1.15,0,0,0,.72-1.29c-.06-.73,0-1.46,0-2.19a2.85,2.85,0,0,0-1.86-2.7C79,52.15,78.32,52,77.5,51.68Zm-.1-11.84a4.22,4.22,0,0,0-2.06-4,4.54,4.54,0,0,0-5,.21,4,4,0,0,0-1.69,3.87A1.24,1.24,0,0,1,70.16,39a3.83,3.83,0,0,0,3.51-1.44c.52-.61.93-.7,1.51-.15C76,38.2,76.68,39.06,77.4,39.84Zm-3,9.89h-2.9c-.17,1.1.14,1.62,1.5,2.51C73.72,51.52,74.8,51,74.43,49.73Zm-.67,11.19c-.13-1.26-.27-2.45-.35-3.65,0-.52-.23-.64-.72-.45l-.51,4.1ZM70.4,53.7l1.07-.5-1.31-1.28Zm5.36-1.53-1.33,1,1.12.51Zm-2.69,3.07.49-.42a2.29,2.29,0,0,0-.6-.41c-.09,0-.27.21-.41.33Z" transform="translate(-8.14 -8.07)"/><path d="M59,73.41H55.15c-.71,0-1.13-.31-1.09-.84s.48-.81,1.06-.8h7.82c.58,0,1,.18,1.05.82s-.37.83-1.09.83Z" transform="translate(-8.14 -8.07)"/><path d="M51.54,73.4c-.73,0-1.11-.27-1.12-.8s.38-.84,1.16-.84c.13,0,.27,0,.41,0a.82.82,0,1,1,0,1.64Z" transform="translate(-8.14 -8.07)"/><text class="cls-3" transform="translate(22.39 98.79)"><tspan class="cls-4">K</tspan><tspan x="7" y="0">unjungan Mitra</tspan></text><text class="cls-5" transform="translate(19.93 108.26)"><tspan class="cls-6">K</tspan><tspan x="5.37" y="0">unjungan Mitra GESN</tspan></text></svg>