<svg id="Layer_1" data-name="Layer 1" xmlns="http://www.w3.org/2000/svg" viewBox="0 0 128 128"><defs><style>.cls-1{fill:#fff;}.cls-2{fill:red;}.cls-3{font-size:11.82px;font-family:Roboto-Bold, Roboto;font-weight:700;letter-spacing:-0.01em;}.cls-3,.cls-5{fill:#0c0d0e;}.cls-4{letter-spacing:0em;}.cls-5{font-size:9.09px;font-family:Roboto-Regular, Roboto;}.cls-6{letter-spacing:-0.01em;}</style></defs><rect class="cls-1" width="128" height="128" rx="9.57"/><path class="cls-2" d="M63.28,57.28s-.6-4.59,1.09-5.92,5.42-1,5.42-1l3,2.06,3.61-2.06s5.4.82,6,2.06,0,4.84,0,4.84L81.63,59s-6.27,3.34-9.7,2.63S63.53,60.28,63.28,57.28Z" transform="translate(-8.58 -8.65)"/><path d="M62.8,68.93c-1.23-1.28-2.37-2.41-3.45-3.61a38.4,38.4,0,0,1-8-12.47c-3.78-10.3.44-21.21,10.24-26.57a23.28,23.28,0,0,1,30.49,7.45c4.3,6.58,4.6,13.56,1.46,20.71a43.74,43.74,0,0,1-9.64,13.28l-1.13,1.17c.76,0,1.38,0,2,0,4.29,0,8.59,0,12.89,0a1.66,1.66,0,0,1,1.71,1c3,5.65,6.12,11.27,9.16,16.92a5,5,0,0,1,.51,1.84,22.91,22.91,0,0,1,.1,2.75c0,.7-.31,1-1,1-.17,0-.34,0-.5,0H37.93c-1.38,0-1.47-.17-1.54-1.53A9.78,9.78,0,0,1,38,85.09c3.13-5,6.1-10.18,9.11-15.3a1.59,1.59,0,0,1,1.57-.87c4.4,0,8.79,0,13.18,0ZM93.85,45.48a19.32,19.32,0,0,0-3.73-11.55,21.63,21.63,0,0,0-32.48-2.58,18.81,18.81,0,0,0-5.58,17.59,27.33,27.33,0,0,0,5.22,11.11,64.74,64.74,0,0,0,15,14.32.65.65,0,0,0,.94,0c2.3-1.83,4.68-3.57,6.89-5.51a47.08,47.08,0,0,0,10.79-13A22,22,0,0,0,93.85,45.48Zm9.74,35.92c-.67-1.24-1.29-2.33-1.84-3.44a.94.94,0,0,0-1-.59c-4.35,0-8.7,0-13,0a1.19,1.19,0,0,1-1.36-1.06c-.42-1.71-.93-3.4-1.36-5.1-.11-.46-.29-.64-.77-.63-.94,0-1.88,0-2.82,0a2,2,0,0,0-1,.38c-2.07,1.58-4.1,3.21-6.18,4.78-1.4,1-1.45,1-2.82,0-2.06-1.55-4.08-3.16-6.13-4.73a1.72,1.72,0,0,0-.95-.38c-5,0-10.05,0-15.07,0a.85.85,0,0,0-.85.49c-1.24,2.13-2.51,4.24-3.76,6.36-.09.15-.17.32-.3.58H66.69c.85,0,1.14.32,1.06,1.15l-.3,3c-.15,1.63-.31,3.26-.46,4.91H79.87V82.75c0-1.15.2-1.34,1.36-1.34h22.36ZM38.83,87.2h26.4L66,79.8H61.8c-6,0-11.92,0-17.88,0a1.08,1.08,0,0,0-1.08.63c-1,1.79-2.11,3.56-3.17,5.35ZM107.36,89H38.19v1.66h69.17ZM81.63,87.2h25.14c-.66-1.22-1.3-2.35-1.89-3.5a1,1,0,0,0-1.06-.63l-21.42,0c-.25,0-.51,0-.77,0Zm18.84-11.54c-.84-1.55-1.63-3-2.36-4.38A1,1,0,0,0,97,70.66c-2.77,0-5.54,0-8.32,0H86.63c.44,1.64.84,3.19,1.28,4.74a.62.62,0,0,0,.49.27Z" transform="translate(-8.58 -8.65)"/><path d="M72.72,62.67a16.95,16.95,0,1,1,17-17A17,17,0,0,1,72.72,62.67Zm3.44-13.62c.75.17,1.51.32,2.25.52s1.48.44,2.19.72a4.74,4.74,0,0,1,3,4.38c0,.52,0,1,0,1.63a15.19,15.19,0,1,0-21.73,0V55a4.77,4.77,0,0,1,3.51-4.9c1.3-.43,2.63-.76,4-1.15a1,1,0,0,0-.49-1.21,6,6,0,0,1-2.19-3.48,2.31,2.31,0,0,0-.55-1,2.09,2.09,0,0,1-.26-2.77,1.82,1.82,0,0,0,.44-1.56,6.45,6.45,0,0,1,10-5.87,6.25,6.25,0,0,1,2.86,6,1.75,1.75,0,0,0,.18,1.13,2.19,2.19,0,0,1-.2,3.26,1.24,1.24,0,0,0-.34.66,5.81,5.81,0,0,1-2.23,3.69A1,1,0,0,0,76.16,49.05Zm1.91-7.16-.38.13c-.8.31-1.21.1-1.43-.75-.08-.3-.14-.61-.23-.91a5.11,5.11,0,0,0-1.58-2.57A6.15,6.15,0,0,1,70,39.55c-.2.8-.18,1.74-.64,2.14s-1.35.15-2,.19a2.82,2.82,0,0,1,1.06,2A4.4,4.4,0,0,0,73,47.39a4.35,4.35,0,0,0,4.15-3.74C77.2,42.93,77.2,42.19,78.07,41.89Zm-11,18,3.1.89c.14-2,.65-3.87.51-5.89l-.53.21c-1.26.55-1.62.34-1.8-1-.12-.95-.26-1.9-.41-2.93-.82.26-1.58.48-2.32.75a3,3,0,0,0-2,2.88c0,.68,0,1.36,0,2a1.81,1.81,0,0,0,1.73,2V58.1c0-.84.29-1.26.86-1.27s.88.42.88,1.24C67.12,58.64,67.11,59.22,67.11,59.88Zm10.43-8.77c-.14,1-.26,1.92-.39,2.82-.22,1.55-.47,1.7-1.9,1.14a2.38,2.38,0,0,0-.28,0,36.77,36.77,0,0,0,.4,5.68c.91-.26,1.72-.51,2.53-.71.5-.12.73-.36.67-.9a8.78,8.78,0,0,1,0-1.45.81.81,0,0,1,.87-.87.82.82,0,0,1,.85.89c0,.37,0,.74,0,1.22a6.76,6.76,0,0,1,.84-.53,1.22,1.22,0,0,0,.77-1.36c-.07-.77,0-1.55,0-2.32a3,3,0,0,0-2-2.85C79.17,51.61,78.41,51.39,77.54,51.11ZM77.43,38.6a4.43,4.43,0,0,0-2.17-4.2,4.78,4.78,0,0,0-5.31.22,4.23,4.23,0,0,0-1.78,4.09,1.3,1.3,0,0,1,1.62-1,4,4,0,0,0,3.71-1.53c.55-.64,1-.74,1.59-.15C75.94,36.87,76.68,37.78,77.43,38.6ZM74.31,49.05H71.23c-.17,1.16.15,1.71,1.6,2.65C73.55,50.94,74.69,50.41,74.31,49.05Zm-.72,11.82c-.13-1.33-.28-2.59-.37-3.86,0-.54-.24-.68-.76-.48l-.53,4.34ZM70,53.24l1.14-.53-1.39-1.35Zm5.66-1.62-1.4,1.09,1.19.54Zm-2.84,3.25.52-.45a2.52,2.52,0,0,0-.63-.43c-.1,0-.29.23-.43.35Z" transform="translate(-8.58 -8.65)"/><path d="M58,74.05c-1.36,0-2.71,0-4.06,0-.76,0-1.2-.33-1.15-.88s.51-.86,1.12-.86h8.25c.61,0,1.06.19,1.12.86s-.4.88-1.16.88C60.75,74.06,59.37,74.05,58,74.05Z" transform="translate(-8.58 -8.65)"/><path d="M50.13,74.05c-.78,0-1.18-.29-1.19-.85s.4-.88,1.22-.88h.44a.87.87,0,1,1,0,1.73C50.42,74.06,50.27,74.05,50.13,74.05Z" transform="translate(-8.58 -8.65)"/><text class="cls-3" transform="translate(7.74 100.74)">K<tspan class="cls-4" x="7.4" y="0">unjungan Non Mitra</tspan></text><text class="cls-5" transform="translate(7.96 110.74)"><tspan class="cls-6">K</tspan><tspan x="5.68" y="0">unjungan Non Mitra GESN</tspan></text></svg>