<svg id="Layer_1" data-name="Layer 1" xmlns="http://www.w3.org/2000/svg" viewBox="0 0 128 128"><defs><style>.cls-1{fill:#fff;}.cls-2{font-size:11.12px;font-family:Roboto-Bold, Roboto;font-weight:700;}.cls-2,.cls-3{fill:#0c0d0e;}.cls-3{font-size:8.56px;font-family:Roboto-Regular, Roboto;}</style></defs><rect class="cls-1" width="128" height="128" rx="9.57"/><path d="M47.61,40.14H73.18a.26.26,0,0,1,.26.26v1.15a.22.22,0,0,1-.22.22H47.61V83.62l.25-.13c.61-.38,1.22-.77,1.84-1.14a.37.37,0,0,1,.34,0l2.65,1.81c.47.33.47.33,1,0l3.18-2c1,.68,2,1.36,3,2.06a.56.56,0,0,0,.63,0c1.09-.7,2.19-1.37,3.3-2.06l.86.53c.76.52,1.52,1,2.27,1.56a.39.39,0,0,0,.51,0c1-.66,2-1.31,3-2a.3.3,0,0,1,.4,0c1,.64,2,1.26,2.92,1.92a.54.54,0,0,0,.7,0c.41-.28.82-.57,1.24-.83.6-.38,1.17-.79,1.79-1.14a.3.3,0,0,1,.26,0c.92.64,1.83,1.28,2.74,1.94a.42.42,0,0,0,.58,0c.92-.65,1.87-1.26,2.8-1.9a.44.44,0,0,1,.59,0c.54.4,1.1.76,1.72,1.18V66.92c0-2,0-4,0-6a.48.48,0,0,0-.29-.5A7.7,7.7,0,0,1,83,58a8.72,8.72,0,0,1-1.36-5.25A7,7,0,0,1,82.51,50a8.24,8.24,0,0,1,3.61-3.4,8.66,8.66,0,0,1,6.59-.4.81.81,0,0,1,.21.09l-.5,1.16a.42.42,0,0,1-.48.25,10.94,10.94,0,0,0-1.35-.24,6.5,6.5,0,0,0-6.41,3.18,5.54,5.54,0,0,0-.33,5.32,6.18,6.18,0,0,0,4.5,3.66,6.5,6.5,0,0,0,4.88-.69,6.65,6.65,0,0,0,1.62-1.32,5.85,5.85,0,0,0,1.06-6.41c0-.06,0-.11-.06-.22l.7-.28a.92.92,0,0,1,1.24.58,7.47,7.47,0,0,1,.3,1.42,5,5,0,0,1,.12.76c0,.47-.16.93-.21,1.41a5.86,5.86,0,0,1-.9,2.64,8.06,8.06,0,0,1-6.3,3.9,24.87,24.87,0,0,1-3-.05,1.56,1.56,0,0,0,0,.21V74.31c0,3.38,0,6.76,0,10.15a1.44,1.44,0,0,1-.22.67A9.59,9.59,0,0,1,87,86a2.69,2.69,0,0,1-.34-.17c-.77-.53-1.54-1-2.29-1.59a.43.43,0,0,0-.59,0c-1,.67-2,1.31-2.93,2-.17.12-.26.06-.4,0-.89-.64-1.8-1.27-2.69-1.92a.4.4,0,0,0-.53,0c-.94.64-1.9,1.25-2.86,1.87a.52.52,0,0,1-.71,0c-1-.66-1.94-1.29-2.92-1.91a.47.47,0,0,0-.4,0q-1.5,1-3,2a.43.43,0,0,1-.57,0c-1-.67-1.94-1.32-2.92-2a.45.45,0,0,0-.36,0q-1.63,1-3.24,2c-.2.12-.33.1-.55-.09a7.56,7.56,0,0,0-1.53-1.11c-.45-.24-.84-.59-1.29-.83a.41.41,0,0,0-.34,0c-1,.63-2.07,1.26-3.09,1.92a.56.56,0,0,1-.72,0c-.89-.63-1.8-1.23-2.69-1.87a.38.38,0,0,0-.5,0L46.66,86c-.27-.36-.54-.7-.78-1a.53.53,0,0,1-.07-.31V40.92c0-2,0-4,0-6a8.31,8.31,0,0,1,1.44-4.44,9.14,9.14,0,0,1,4.14-3.38,9.73,9.73,0,0,1,3.65-.72H79.92c2.91,0,5.82,0,8.73,0a8.18,8.18,0,0,1,5,1.67,7.93,7.93,0,0,1,3,4.63,10.67,10.67,0,0,1,.19,2.52.54.54,0,0,1-.54.55H87.81v8.41a.24.24,0,0,1-.24.24H86.28a.19.19,0,0,1-.19-.2V41.78H78.25a.21.21,0,0,1-.21-.21V40.35a.2.2,0,0,1,.2-.2h7.82V28.06l-.32,0H59.16c-1.4,0-2.81,0-4.21,0a7.5,7.5,0,0,0-4.52,1.56,6.86,6.86,0,0,0-2.84,5.71v4.49C47.59,39.91,47.6,40,47.61,40.14Zm40.19-6h6.84a.43.43,0,0,0,.43-.48,5.84,5.84,0,0,0-1.84-3.68A6.89,6.89,0,0,0,88.07,28c-.27,0-.25.17-.25.35,0,1.34,0,2.69,0,4Z" transform="translate(-8 -7.45)"/><path d="M56.94,73.05V71.79c0-.21.09-.31.33-.31.84,0,1.68,0,2.52,0,5.85,0,11.69,0,17.54,0h.37v1.62Z" transform="translate(-8 -7.45)"/><path d="M77.71,54v1.59H57V54Z" transform="translate(-8 -7.45)"/><path d="M57,61.42V59.83H77.69v1.59Z" transform="translate(-8 -7.45)"/><path d="M77.71,65.64v1.59H57V65.64Z" transform="translate(-8 -7.45)"/><path d="M57,48.2H77.7c0,.48,0,.93,0,1.39,0,.06-.13.15-.22.17a4.49,4.49,0,0,1-.73.06H57Z" transform="translate(-8 -7.45)"/><path d="M85.56,55.46l1-1.39,2.35,1.57,3.39-4.82A1.29,1.29,0,0,1,94,50.47l.45.29-5.12,7.29Z" transform="translate(-8 -7.45)"/><path d="M52.14,72.71v-.89a.37.37,0,0,1,.37-.37h2.61a.37.37,0,0,1,.37.37c0,.36,0,.73,0,1.09,0,.06-.11.15-.17.15H52.49A.36.36,0,0,1,52.14,72.71Z" transform="translate(-8 -7.45)"/><rect x="44.15" y="40.76" width="3.33" height="1.59" rx="0.6"/><rect x="44.16" y="46.57" width="3.32" height="1.6" rx="0.49"/><path d="M52.14,61v-.68a.47.47,0,0,1,.47-.47h1c.54,0,1.08,0,1.62,0,.16,0,.28,0,.27.22V61a.47.47,0,0,1-.46.47H52.61A.47.47,0,0,1,52.14,61Z" transform="translate(-8 -7.45)"/><path d="M52.15,66.66v-.57a.45.45,0,0,1,.45-.45h2.32a.57.57,0,0,1,.56.57v.45a.56.56,0,0,1-.56.57h-2.2A.57.57,0,0,1,52.15,66.66Z" transform="translate(-8 -7.45)"/><text class="cls-2" transform="translate(40.03 97.32)">List Mitra</text><text class="cls-3" transform="translate(28.95 106.73)">Daftar Mitra GESN</text></svg>