<svg id="Layer_1" data-name="Layer 1" xmlns="http://www.w3.org/2000/svg" viewBox="0 0 128 128"><defs><style>.cls-1{fill:#fff;}.cls-2{font-size:10.04px;font-family:Roboto-Bold, Roboto;font-weight:700;}.cls-2,.cls-3{fill:#0c0d0e;}.cls-3{font-size:8.61px;font-family:Roboto-Regular, Roboto;}.cls-4{letter-spacing:-0.01em;}.cls-5{letter-spacing:0em;}</style></defs><rect class="cls-1" width="128" height="128" rx="9.57"/><path d="M65.76,32.19A17.72,17.72,0,0,1,66,30a4.2,4.2,0,0,1,3.82-3.12H96.64a4.25,4.25,0,0,1,4.46,3.26,5.77,5.77,0,0,1,.14,1.38q0,13.1,0,26.2a4.33,4.33,0,0,1-4.65,4.67h-11c.18.21.28.34.4.46,1.69,1.69,3.39,3.36,5.07,5.06a6,6,0,0,1,1.51,6.64,5.88,5.88,0,0,1-5.45,4,5.82,5.82,0,0,1-4.66-1.8Q72.23,66.57,62.05,56.41a.9.9,0,0,0-1-.27A13.34,13.34,0,0,1,44.07,45a2.14,2.14,0,0,1,1.06-2.15,2.3,2.3,0,0,1,2.7.32c.8.74,1.57,1.53,2.33,2.31a4.18,4.18,0,0,0,4.61,1.11c1.07-.35,2.16-.67,3.23-1a3,3,0,0,0,2.1-2c.39-1.13.8-2.25,1.16-3.39a3.93,3.93,0,0,0-1-4.1c-.85-.89-1.75-1.74-2.6-2.63a2.35,2.35,0,0,1-.39-2.76,2.13,2.13,0,0,1,2.38-1,15.8,15.8,0,0,1,1.66.35,12.68,12.68,0,0,1,4,1.9ZM70,43l-.15,0A12,12,0,0,0,68,36.54a11.7,11.7,0,0,0-8.57-5.63c-.75-.11-1.26.32-1.16,1a1.83,1.83,0,0,0,.46.88c.8.86,1.67,1.65,2.47,2.51a5.13,5.13,0,0,1,1.22,5.39c-.35,1.1-.78,2.18-1.15,3.27a4.34,4.34,0,0,1-3,2.89c-1,.3-1.93.58-2.89.91a5.48,5.48,0,0,1-6.23-1.55c-.64-.68-1.31-1.33-2-2A1.11,1.11,0,0,0,45.79,44a1,1,0,0,0-.44,1.15c0,.12,0,.24,0,.36a12.12,12.12,0,0,0,15.75,9.32,1.19,1.19,0,0,1,1.4.33c4.75,4.78,9.53,9.53,14.3,14.3,2.05,2,4.08,4.11,6.15,6.13a4.93,4.93,0,1,0,6.75-7.19L69.49,48.16a1.22,1.22,0,0,1-.34-1.34C69.48,45.58,69.7,44.3,70,43Zm9.44,13.08c0,.12,0,.17.07.19,1.52,1.54,3,3.08,4.59,4.6a.84.84,0,0,0,.54.18c4.13,0,8.25,0,12.38,0a3,3,0,0,0,3-3q0-13.47,0-26.93a3,3,0,0,0-3-3c-1.07,0-2.15,0-3.22,0H70.25a3,3,0,0,0-3.18,3.16,12.82,12.82,0,0,0,0,1.52,1.69,1.69,0,0,0,.35.9,13.35,13.35,0,0,1,3,13.1.7.7,0,0,0,.21.79c1.11,1.09,2.24,2.17,3.3,3.31a2.53,2.53,0,0,0,2.12.89c3.73-.08,7.48,0,11.22,0a1.4,1.4,0,0,0,1.11-.44,4,4,0,0,1,5-.63,4.05,4.05,0,0,1,1.82,4.67A3.88,3.88,0,0,1,92,58.24,4,4,0,0,1,88,56.58c-.14-.19-.36-.44-.55-.44C84.76,56.11,82.11,56.12,79.41,56.12Zm14.73-1.87a2.84,2.84,0,0,0-5.68-.08,2.84,2.84,0,1,0,5.68.08ZM76.36,53.06l-.12.16c.46.42.89.87,1.38,1.25a1.7,1.7,0,0,0,.93.39c2.69,0,5.38,0,8.06,0h.58l.12-1.82Z" transform="translate(-8.65 -7.53)"/><path d="M84.89,37.46H78.58a.89.89,0,0,0-.81.38,4.09,4.09,0,1,1-.07-5.21,1.23,1.23,0,0,0,1.08.48H91.39a2.16,2.16,0,0,1,2.08,3,2.22,2.22,0,0,1-2.21,1.3Zm-7.45-2.19a2.83,2.83,0,1,0-5.66,0,2.83,2.83,0,0,0,5.66,0Zm1.22.9.38,0H91.23c.16,0,.36,0,.47-.05s.58-.42.66-.69a1,1,0,0,0-.27-.85,1.38,1.38,0,0,0-.89-.26c-4,0-8,0-12.06,0-.17,0-.34,0-.48,0Z" transform="translate(-8.65 -7.53)"/><path d="M77.56,42.44c.31,0,.61,0,.91,0a2.73,2.73,0,0,0,2.39-.84,3.9,3.9,0,0,1,5.79.4,1.09,1.09,0,0,0,1,.45c1.21,0,2.43,0,3.64,0a2.18,2.18,0,1,1,0,4.34c-1.26,0-2.51,0-3.76,0a1.14,1.14,0,0,0-.75.36,4.08,4.08,0,0,1-6.39,0,1.12,1.12,0,0,0-.75-.36c-1.41,0-2.83,0-4.24,0a2.14,2.14,0,0,1-1.15-3.82,3.16,3.16,0,0,1,1.34-.47,16.5,16.5,0,0,1,2,0Zm5.92,5a2.85,2.85,0,1,0-2.8-2.91A2.86,2.86,0,0,0,83.48,47.46Zm4.1-1.94c1.36,0,2.7,0,4,0,.51,0,.77-.41.79-.92a.89.89,0,0,0-.9-.89c-.68,0-1.37,0-2.06,0H87.58Zm-8.09,0V43.69c-1.34,0-2.69,0-4,0a.81.81,0,0,0-.8.9.82.82,0,0,0,.81.9C76.81,45.55,78.16,45.52,79.49,45.52Z" transform="translate(-8.65 -7.53)"/><text class="cls-2" transform="translate(44.78 88.56)">Masalah</text><text class="cls-3" transform="translate(15.23 97.71)">Laporkan masalah mesin<tspan x="21.05" y="8.62">atau </tspan><tspan class="cls-4" x="40.46" y="8.62">k</tspan><tspan class="cls-5" x="44.8" y="8.62">endaran</tspan></text></svg>