<svg id="Layer_1" data-name="Layer 1" xmlns="http://www.w3.org/2000/svg" viewBox="0 0 128 128"><defs><style>.cls-1{fill:#fff;}.cls-2{font-size:8.75px;font-family:Roboto-Bold, Roboto;font-weight:700;}.cls-2,.cls-4{fill:#0c0d0e;}.cls-3{letter-spacing:-0.01em;}.cls-4{font-size:8.2px;font-family:Roboto-Regular, Roboto;}.cls-5{letter-spacing:-0.01em;}</style></defs><rect class="cls-1" width="128" height="128" rx="9.57"/><path d="M53.89,74.14v-2.4c0-.72.32-1,1-1s1.35,0,2,0a2.18,2.18,0,0,1,1.94,3.18.83.83,0,0,0,0,.62,2.18,2.18,0,0,1-1.94,3.18H54.87a.87.87,0,0,1-1-1C53.88,75.84,53.89,75,53.89,74.14Zm1.77-.82a8.14,8.14,0,0,0,1.22,0c.18,0,.33-.28.49-.43-.16-.14-.3-.38-.47-.4a8.49,8.49,0,0,0-1.24,0Zm0,2.61a9.08,9.08,0,0,0,1.29,0,.65.65,0,0,0,.4-.44c0-.11-.24-.36-.4-.38a9.16,9.16,0,0,0-1.29,0Z" transform="translate(-8.24 -8)"/><path d="M66.1,73.46c0,.55,0,1.09,0,1.64a2.62,2.62,0,0,1-5.23,0c0-1.13,0-2.26,0-3.38,0-.61.34-1,.86-1s.88.38.88,1c0,1,0,2.11,0,3.16,0,.65.32,1,.85,1.05s.88-.39.89-1.07c0-1,0-2.07,0-3.1,0-.65.33-1,.85-1.05s.89.39.89,1.06S66.1,72.9,66.1,73.46Z" transform="translate(-8.24 -8)"/><path d="M65.61,62H62c-.69,0-1.09-.33-1.09-.87s.4-.87,1.09-.87q3.71,0,7.41,0c.69,0,1.09.32,1.09.87s-.4.87-1.09.87Z" transform="translate(-8.24 -8)"/><path d="M62.23,63.72h3.65c.69,0,1.09.33,1.09.88s-.4.87-1.09.87H58.47c-.69,0-1.09-.33-1.08-.88s.39-.86,1.08-.87Z" transform="translate(-8.24 -8)"/><path d="M62.65,36.33a3.4,3.4,0,0,0,0,.45v.8H78.31V36.33ZM74,57.89v1.32c.44.1.9.16,1.37.26V58.16A4.12,4.12,0,0,1,74,57.89ZM62.61,50.05V51.3h12.7V50.05Zm9.57,8.44h0Z" transform="translate(-8.24 -8)"/><path d="M97.84,72.25a5.49,5.49,0,0,1-2.49-2.86,6.67,6.67,0,0,0-3-3.31c-1.49-.86-3-1.71-4.47-2.59A3,3,0,0,0,85.33,63V59.41h1.22a2.27,2.27,0,0,0,1.85-.92,2.07,2.07,0,0,0,.34-1.32c0-.14,0-.29,0-.43a4.85,4.85,0,0,1,0-.66A2.72,2.72,0,0,0,88.14,54c-.06-.07,0-.29.06-.4A2.43,2.43,0,0,0,88.75,52a6.15,6.15,0,0,0-.07-.88,9.6,9.6,0,0,0-.54-.92.53.53,0,0,1,.06-.4,3.63,3.63,0,0,0,.51-1,2.63,2.63,0,0,0-.54-2.31c-.15-.15-.1-.29,0-.47a2.38,2.38,0,0,0,.56-1.51c0-.77,0-1.55,0-2.33a1.82,1.82,0,0,0-1.06-1.69c-.55-.26-1.11-.52-1.68-.74-.23-.09-.26-.19-.26-.4,0-.58,0-1.16,0-1.75a1.49,1.49,0,0,0-.81-1.35A4.15,4.15,0,0,0,81.24,36a1.84,1.84,0,0,0-1.45,2.08,8.82,8.82,0,0,1,0,1.36.52.52,0,0,1-.23.36,13.21,13.21,0,0,1-1.34.58,2.08,2.08,0,0,0-1.43,2.08,14.23,14.23,0,0,1,0,1.6,2.54,2.54,0,0,0,.56,2c.22.23.07.45-.06.66s-.43.5-.46.77a2.56,2.56,0,0,0,.41,2.16.54.54,0,0,1,0,.83,2.43,2.43,0,0,0,0,2.92.57.57,0,0,1,0,.83,2,2,0,0,0-.44,1,14.06,14.06,0,0,0,0,2.34,1.8,1.8,0,0,0,.08.39,2,2,0,0,0,.33.66,2.39,2.39,0,0,0,.86.64,2.92,2.92,0,0,0,1.08.19h4.35V66a2.69,2.69,0,0,0-1.73,3A2.77,2.77,0,0,0,80,71c-1.18-.68-2.33-1.33-3.47-2a.77.77,0,0,1-.26-.33,2.7,2.7,0,0,0-2.59-1.48c-5.79,0-11.59,0-17.38,0h-.67V62.85h.63c.78,0,1.09-.31,1.09-1.09V50.64H59A.89.89,0,0,0,59.59,49c-1.21-1-2.44-2.07-3.63-3.13a1,1,0,0,1-.31-.68c0-1.65,0-3.31,0-5a2.6,2.6,0,0,1,2.68-2.68h2.15c0,5.6,0,11.19,0,16.78a4.55,4.55,0,0,0,.64,2.38,4.87,4.87,0,0,0,2.06,1.94,6.57,6.57,0,0,0,6.48-.16l.12-.07a2.27,2.27,0,0,1,2.28,0l.14.07h0a7.89,7.89,0,0,0,1.29.59l.45.12V57.89a11,11,0,0,1-1.31-.6,3.72,3.72,0,0,0-3.72.11,5,5,0,0,1-4.78.29A3.46,3.46,0,0,1,62,54.47c0-.94,0-1.87,0-2.81,0-.11,0-.22,0-.36h.59V50.05H62V37.58h.6v-.8a3.4,3.4,0,0,1,0-.45H62a16.94,16.94,0,0,1,.16-1.92,6.3,6.3,0,0,1,.32-1.07,7,7,0,0,1,.87-1.55A8.09,8.09,0,0,1,65.13,30a9.63,9.63,0,0,1,3-1.4.66.66,0,0,0,.53-.74c0-.49,0-1,0-1.48H73.1c0,.5,0,1,0,1.46a.72.72,0,0,0,.55.74,9.44,9.44,0,0,1,4,2.28,7.37,7.37,0,0,1,1.17,1.45,5.66,5.66,0,0,1,.48,1c.1.24.17.5.25.75s.18.71.29,1.07l1.37-.08c0-.28,0-.52-.08-.74l-.06-.25a7.65,7.65,0,0,0-.61-1.74,5.18,5.18,0,0,0-.58-.91,13.53,13.53,0,0,0-1.66-1.88,10,10,0,0,0-3.36-1.87c-.09,0-.23-.14-.23-.21,0-.36,0-.72,0-1.1h1.43V25.11H74.64V22.83a.73.73,0,0,0-.76-.82c-2,0-4,0-6,0a.69.69,0,0,0-.71.77v2.35H65.72v1.25h1.44c0,.35,0,.65,0,.94a.46.46,0,0,1-.22.33,11,11,0,0,0-3.16,1.71,8.33,8.33,0,0,0-2.84,3.84,8,8,0,0,0-.45,2.61H58.62a4.38,4.38,0,0,0-4.73,4.72V44c-.94-.52-1-.51-1.85.19l-3.39,2.91c-.75.64-1.52,1.25-2.22,1.93a1.21,1.21,0,0,0-.31.95,1,1,0,0,0,.72.59,21.49,21.49,0,0,0,2.78,0,.79.79,0,0,0,.77-.78.83.83,0,0,0-.63-.91,3.79,3.79,0,0,0-.43-.08L53,45.68l3.69,3.17c-.88.16-1.07.39-1.07,1.22v11H50.4v-4c0-1.24,0-2.47,0-3.71a.87.87,0,1,0-1.74,0v8c0,1.35.16,1.51,1.49,1.51h3.71v4.36H53a2.58,2.58,0,0,0-2.56,2.53c0,3,0,5.93,0,8.89a2.58,2.58,0,0,0,2.51,2.52c.34,0,.69,0,1,0a4.7,4.7,0,0,0,5,3.51c4.56-.08,9.12,0,13.68,0a4,4,0,0,0,.49,0A.87.87,0,0,0,74,83.8a.88.88,0,0,0-.81-.88,4,4,0,0,0-.49,0h-11c-1.14,0-2.29,0-3.43,0a2.42,2.42,0,0,1-2.33-1.74h3c.71,0,1.13-.34,1.11-.9s-.41-.84-1.11-.84H53.32c-.89,0-1.17-.28-1.17-1.17V70.18c0-1,.26-1.22,1.22-1.22H73.16a3.25,3.25,0,0,0-.51.65,3.31,3.31,0,0,1-1.29,1.6,5.32,5.32,0,0,0-.84,1c-.47-.51-.78-.87-1.12-1.2a.87.87,0,1,0-1.23,1.22c.37.4.79.76,1.14,1.17a1.14,1.14,0,0,1,.27.66c0,.85,0,1.71,0,2.56,0,.64.34,1,.87,1s.87-.4.87-1c0-.86,0-1.71,0-2.57a.83.83,0,0,1,.12-.5c.34-.4.73-.77,1-1,.74.49,1.39.9,2,1.35a.77.77,0,0,1,.33.48c0,1.38,0,2.76,0,4.14a.87.87,0,0,1-.93.92c-.16,0-.33,0-.49,0H62.77c-.64,0-1,.34-1,.87a.85.85,0,0,0,.93.86c3.79,0,7.59,0,11.39,0a2.52,2.52,0,0,0,2.4-2,4.39,4.39,0,0,0,.09-1c0-1,0-2,0-3.1.77.44,1.45.81,2.11,1.22a.47.47,0,0,1,.15.4,3.52,3.52,0,0,0,2,3.84c.74.41,1.47.84,2.23,1.29a2.57,2.57,0,0,1-2.15,1.08H76.73c-.64,0-1,.34-1,.87s.39.86,1,.87c1.41,0,2.83,0,4.25,0a4.25,4.25,0,0,0,3.28-1.58l.31-.38a6.89,6.89,0,0,0,5.52.16,4.73,4.73,0,0,1,4.05.36c.69.39,1.38.8,2.07,1.2s1.14.29,1.42-.21.08-.93-.53-1.29-1-.59-1.55-.9a6.92,6.92,0,0,0-6.45-.68,4.61,4.61,0,0,1-4-.31c-1.28-.69-2.53-1.43-3.78-2.17a1.68,1.68,0,0,1-.85-1.47l.61.33c.74.42,1.47.87,2.22,1.27a.84.84,0,0,0,1.17-.35.86.86,0,0,0-.31-1.15l-.37-.22L74.66,72a2.48,2.48,0,0,1-.42-.26.81.81,0,0,1-.18-1.08.79.79,0,0,1,1.07-.37,3.35,3.35,0,0,1,.53.28l5.42,3.13c.6.34,1.06.3,1.36-.12s.19-.87-.33-1.31a.83.83,0,0,1-.27-1.11.82.82,0,0,1,1.07-.41c.75.22,1.1.16,1.32-.3s0-.91-.43-1.25A.78.78,0,0,1,83.59,68a.83.83,0,0,1,1-.37c.12,0,.25.15.35.13a2.13,2.13,0,0,0,.94-.36.74.74,0,0,0-.07-1c-.1-.12-.25-.2-.36-.32a.86.86,0,0,1,.94-1.4,2.75,2.75,0,0,1,.38.2c1.45.83,2.88,1.7,4.35,2.5a5.82,5.82,0,0,1,2.75,3,6.49,6.49,0,0,0,3,3.29c.22.12.53.27.7.19a1.45,1.45,0,0,0,.75-.67C98.5,72.81,98.22,72.45,97.84,72.25ZM84.14,37.38a.43.43,0,0,1,0,.41,2.27,2.27,0,0,1-2.89-.21A2.31,2.31,0,0,1,84.14,37.38ZM79.26,58.17c-.74,0-.92-.19-.92-1,0-.16,0-.32,0-.48a9.42,9.42,0,0,1,0-1.19,2,2,0,0,1,.33-.91,1.29,1.29,0,0,0,0-1.66,1.64,1.64,0,0,1,0-2.09,1.24,1.24,0,0,0,0-1.66,1.66,1.66,0,0,1,0-2.09,1.21,1.21,0,0,0,0-1.63,1.41,1.41,0,0,1-.36-1c0-.75,0-1.5,0-2.26a.67.67,0,0,1,.46-.71c.65-.25,1.27-.56,1.92-.8a.77.77,0,0,0,.56-.89c0-.19,0-.38,0-.64a4.57,4.57,0,0,0,3,0c0,.31,0,.58,0,.85a.58.58,0,0,0,.39.57c.71.29,1.4.62,2.11.9a.57.57,0,0,1,.42.58c0,.9,0,1.79,0,2.69a.85.85,0,0,1-.94.9H80.6v1.24h5.65a.83.83,0,0,1,.94.82A2.2,2.2,0,0,1,87,49.09a.61.61,0,0,1-.61.35H80.6v1.24h5.65a.83.83,0,0,1,.94.82A2.2,2.2,0,0,1,87,52.83a.6.6,0,0,1-.61.35H80.6v1.25h5.65a.84.84,0,0,1,.94.89c0,.47,0,1,0,1.42,0,.27,0,.54,0,.8,0,.41-.25.61-.73.62s-.84,0-1.27,0ZM68.64,23.27h4.42v1.82H68.64Z" transform="translate(-8.24 -8)"/><path d="M97.6,57a2.37,2.37,0,0,1-2.07,2.29,13,13,0,0,1-3,.06,2.78,2.78,0,0,1-1-.46,1.05,1.05,0,0,0-.91-.12.46.46,0,0,1-.36,0L90,58.49l-.6-.53a2.64,2.64,0,0,1,3.18,0,.93.93,0,0,0,.46.15h.08c.54,0,1.08,0,1.62,0a1.4,1.4,0,0,0,1.44-1.5c-.06-.72,0-1.45,0-2.22H90.23V53.19h5.88V52H90.24V50.7h5.88V49.46H90.23V48.19h6l-.35-1.14c0-.11-.08-.23-.11-.34h0a4.22,4.22,0,0,1-.37-2,9.06,9.06,0,0,1,.33-1.29h0a2.76,2.76,0,0,0,.08-.27H90.22V42h5.9V40.72H90.23V39.46h5.93c0-.43-.07-.81-.11-1.22H90.23V37h5.41a6.6,6.6,0,0,0-.56-1c-.65-.82-1.33-1.61-2-2.4-.07-.07-.13-.15-.19-.22l-.06-.08-.08-.11-.08-.12a.25.25,0,0,0,0-.07,1.58,1.58,0,0,1-.19-.54,2,2,0,0,1,0-.43,14.68,14.68,0,0,0,0-1.88h-3v1.21a3.85,3.85,0,0,0,0,.59,1.82,1.82,0,0,1,0,.4.17.17,0,0,1,0,.07.68.68,0,0,1,0,.14.29.29,0,0,1,0,.09l0,.1,0,.1,0,.08,0,.06a.59.59,0,0,1,0,.08l-.07.1,0,.07a1.84,1.84,0,0,1-.17.22l-.06.07c-.07.08-.15.15-.23.23l-.24.26-.06.07h0c-.29.33-.56.68-.83,1s-.4.54-.61.79a.29.29,0,0,1-.26.08c-.37-.16-.73-.34-1.16-.54.3-.39.55-.74.82-1.07l.22-.27a10,10,0,0,1,1-1.14,1.23,1.23,0,0,0,.37-.61,2.48,2.48,0,0,0,.06-.78c0-.64,0-1.28,0-1.91s.2-.76.68-.76c1.53,0,3.06,0,4.58,0,.47,0,.67.25.67.72a17.86,17.86,0,0,1,0,2.07,1.7,1.7,0,0,0,.56,1.39c.38.45.77.88,1.15,1.32a8.57,8.57,0,0,1,1.67,2.72,5.38,5.38,0,0,1,.28,1.49c0,1.34,0,2.69,0,4a5.05,5.05,0,0,1-.38,1.2,3.33,3.33,0,0,0,.1,2.66A3.57,3.57,0,0,1,97.58,48C97.61,51,97.6,54,97.6,57Z" transform="translate(-8.24 -8)"/><path d="M63.49,41.35h1.42v5.56H63.49Z" transform="translate(-8.24 -8)"/><path d="M66.6,32.27l-.06.06a4.72,4.72,0,0,0-1.24,1.74,6.33,6.33,0,0,0-.36,1.09L63.51,35c0-.12,0-.24.05-.36a1.35,1.35,0,0,1,.07-.36,7.56,7.56,0,0,1,1-1.94,3.88,3.88,0,0,1,.26-.31,5,5,0,0,1,.51-.52.33.33,0,0,1,.29,0C66,31.75,66.27,32,66.6,32.27Z" transform="translate(-8.24 -8)"/><path d="M69.05,30.94l-1.47.6-.83-1,1.83-.76C68.75,30.18,68.89,30.55,69.05,30.94Z" transform="translate(-8.24 -8)"/><path d="M63.48,40.06V38.87H64.9v1.19Z" transform="translate(-8.24 -8)"/><path d="M79.82,44.43V42.61h1.42v1.82Z" transform="translate(-8.24 -8)"/><text class="cls-2" transform="translate(19.98 100.96)"><tspan class="cls-3">P</tspan><tspan x="5.52" y="0">embelian Bahan DUP</tspan></text><text class="cls-4" transform="translate(20.99 109.98)"><tspan class="cls-5">P</tspan><tspan x="5.16" y="0">embelian bahan baku </tspan><tspan x="23.36" y="8.2">daur ulang</tspan></text></svg>