<svg id="Layer_1" data-name="Layer 1" xmlns="http://www.w3.org/2000/svg" viewBox="0 0 128 128"><defs><style>.cls-1{fill:#fff;}.cls-2{font-size:9.19px;font-family:Roboto-Bold, Roboto;font-weight:700;}.cls-2,.cls-4{fill:#0c0d0e;}.cls-3{letter-spacing:-0.01em;}.cls-4{font-size:8.61px;font-family:Roboto-Regular, Roboto;}.cls-5{letter-spacing:-0.01em;}.cls-6{letter-spacing:0em;}</style></defs><rect class="cls-1" width="128" height="128" rx="9.57"/><path d="M73.82,58.6l.33.06v-.45Zm-2.64-2.34.06,0,.76.38C71.87,56.4,71.62,56.28,71.18,56.26Z" transform="translate(-7.68 -7.68)"/><path d="M57.43,71v.82h1.46c.61,0,1,.31,1,.81s-.37.81-1,.82H57.46v.82h2.18c.67,0,1.06.31,1,.84s-.38.79-1,.79c-1,0-1.9,0-2.85,0-.7,0-1-.29-1-1,0-1.51,0-3,0-4.54,0-.7.29-1,1-1h3c.59,0,1,.33,1,.83s-.37.8-1,.8Z" transform="translate(-7.68 -7.68)"/><path d="M50.88,71.38a1.15,1.15,0,0,0,1.13.37,2.06,2.06,0,0,1,1.8,3.19,2.25,2.25,0,0,1-2.38.91,2.43,2.43,0,0,1-2-1.21.74.74,0,0,1,.24-1,.77.77,0,0,1,1.09.13,1.07,1.07,0,0,0,1.07.43,3.43,3.43,0,0,0,.69-.31,1,1,0,0,0-1.11-.47,2.06,2.06,0,1,1-.2-4.12,2.84,2.84,0,0,1,2.48.94c.38.47.38.94,0,1.26a.84.84,0,0,1-1.21-.17A1,1,0,0,0,50.88,71.38Z" transform="translate(-7.68 -7.68)"/><path d="M64,74.22c.55,0,1,0,1.53,0a.82.82,0,1,1,0,1.63c-.75,0-1.49,0-2.24,0a.83.83,0,0,1-.93-.91V70.2a.82.82,0,1,1,1.63,0C64,71.53,64,72.83,64,74.22Z" transform="translate(-7.68 -7.68)"/><path d="M69.67,74.22c.54,0,1,0,1.49,0s1,.33,1,.83-.36.79-.92.8c-.75,0-1.5,0-2.24,0a.82.82,0,0,1-.91-.92c0-1.57,0-3.13,0-4.69a.82.82,0,0,1,.81-.92.83.83,0,0,1,.82.92C69.68,71.54,69.67,72.85,69.67,74.22Z" transform="translate(-7.68 -7.68)"/><path d="M64.4,59.52h3.47c.61,0,1,.32,1,.81s-.36.82-1,.82h-7c-.6,0-1-.31-1-.8s.36-.82,1-.83Z" transform="translate(-7.68 -7.68)"/><path d="M61.15,62.79h3.42c.64,0,1,.31,1,.82s-.37.81-1,.81H57.62c-.64,0-1-.31-1-.82s.37-.81,1-.81Z" transform="translate(-7.68 -7.68)"/><path d="M73.82,58.6l.33.06v-.45Z" transform="translate(-7.68 -7.68)"/><path d="M94.42,70.74a5.14,5.14,0,0,1-2.23-2.57A6.39,6.39,0,0,0,89.33,65c-1.34-.77-2.69-1.53-4-2.33a3,3,0,0,0-2.59-.53V58.6h3.66a2.56,2.56,0,0,0,1.76-.71,2.18,2.18,0,0,0,.62-1.68v-.05a7.87,7.87,0,0,1,0-1.19,3,3,0,0,0-.66-2.3c-.07-.08,0-.31.06-.43a2.6,2.6,0,0,0,.59-1.69,5,5,0,0,0-.07-1,9.34,9.34,0,0,0-.59-1,.63.63,0,0,1,.07-.43c.18-.36.51-.69.56-1.06a2.86,2.86,0,0,0-.59-2.51c-.16-.17-.11-.32,0-.52a2.59,2.59,0,0,0,.61-1.64c0-.84,0-1.7,0-2.54a2,2,0,0,0-1.16-1.84c-.6-.29-1.21-.57-1.83-.81a.37.37,0,0,1-.28-.43c0-.59,0-1.18,0-1.78V34.9a1.58,1.58,0,0,0-.88-1.46l-.06,0a4.78,4.78,0,0,0-4.62,0A1.8,1.8,0,0,0,79,35c0,.1,0,.21,0,.33a10.44,10.44,0,0,1,0,1.48.55.55,0,0,1-.25.39,11.56,11.56,0,0,1-1.45.63,2.29,2.29,0,0,0-1.57,2.27,12.63,12.63,0,0,1,0,1.74,2.77,2.77,0,0,0,.62,2.18c.23.25.07.49-.08.72a2.37,2.37,0,0,0-.5.84A2.81,2.81,0,0,0,76.24,48a.58.58,0,0,1,0,.9,2.64,2.64,0,0,0,0,3.18.61.61,0,0,1,0,.9A2.39,2.39,0,0,0,75.78,54a17.33,17.33,0,0,0,0,2.39c0,.05,0,.1,0,.15A2.22,2.22,0,0,0,76.52,58a2.74,2.74,0,0,0,1.82.6h2.72v6.31a2.51,2.51,0,0,0-1.61,2.83,2.57,2.57,0,0,0-1.64,1.88c-.77-.44-1.51-.85-2.23-1.29a.77.77,0,0,1-.28-.4,2.43,2.43,0,0,0-2.52-1.87H55c0-1.41,0-2.78,0-4.15,0-.13.16-.28.28-.39l3.25-2.79c.36-.3.67-.61.47-1.12s-.6-.54-1.05-.53H56.61V46.86c0-1-.22-1.21-1.19-1.22H55V43.27c0-.85,0-1.7,0-2.55a2.43,2.43,0,0,1,2.4-2.42H58c0,4.93,0,9.85,0,14.78a5,5,0,0,0,.7,2.59,5.3,5.3,0,0,0,2.24,2.11,7.12,7.12,0,0,0,6.49.12,7.88,7.88,0,0,0,.7-.37,2.45,2.45,0,0,1,2.48,0,11.27,11.27,0,0,0,1.54.71l0,0a16.58,16.58,0,0,0,1.65.35l.33-.39v-1A5.45,5.45,0,0,1,72,56.67l-.76-.38-.06,0a4,4,0,0,0-3.72,0l-.27.14a5.41,5.41,0,0,1-5.21.33A4.2,4.2,0,0,1,60.08,55a3.5,3.5,0,0,1-.44-1.81c0-1,0-2,0-3.05,0-.12,0-.24,0-.39H74.14V48.4H59.67V34.83H77.41V33.47H59.6a19.59,19.59,0,0,1,.18-2.09,7,7,0,0,1,1.3-2.86,8.89,8.89,0,0,1,2-1.94,10.28,10.28,0,0,1,3.23-1.52.72.72,0,0,0,.58-.81c0-.53,0-1.06,0-1.61h4.86c0,.55,0,1.07,0,1.59a.77.77,0,0,0,.59.81,10.21,10.21,0,0,1,4.39,2.47,7.51,7.51,0,0,1,1.8,2.66c.24.64.39,1.31.59,2l1.49-.09c0-.31,0-.56-.09-.81a7.52,7.52,0,0,0-1.35-3.15,15.5,15.5,0,0,0-1.82-2.05,10.8,10.8,0,0,0-3.66-2c-.1,0-.24-.14-.25-.23,0-.39,0-.78,0-1.19H75V21.25H73.41V18.77a.79.79,0,0,0-.82-.9c-2.18,0-4.37,0-6.55,0a.75.75,0,0,0-.77.84v2.56H63.7v1.36h1.57c0,.38,0,.7,0,1A.51.51,0,0,1,65,24a12.28,12.28,0,0,0-3.43,1.86,9.21,9.21,0,0,0-3.1,4.19A8.84,8.84,0,0,0,58,32.91c0,1.25,0,2.5,0,3.75H57.7A4.1,4.1,0,0,0,53.34,41v4.14c0,.16,0,.32,0,.51H49.5c-.78,0-1.06.28-1.06,1v7.7c0,.68.31,1.07.83,1.06s.8-.39.8-1.09v-7H55v.58c0,3.21,0,6.43,0,9.64a1.48,1.48,0,0,0,.17.82c.16.22.48.31.75.47l-3.38,2.89-3.45-3c.72-.13,1-.44,1-.91s-.4-.76-1.07-.77H47a.87.87,0,0,0-1,.57.88.88,0,0,0,.4,1L51.51,63a2.07,2.07,0,0,0,.83.56,2.34,2.34,0,0,0,1-.21v2.71H48.63A2.45,2.45,0,0,0,46,68.7v7.65a2.49,2.49,0,0,0,2.78,2.77h4.62a4.18,4.18,0,0,0,4.55,3.26H71.71a2.88,2.88,0,0,0,.51,0,.81.81,0,0,0,0-1.61,2.77,2.77,0,0,0-.5,0H59.15c-.61,0-1.22,0-1.83,0a2.22,2.22,0,0,1-2.11-1.62c.74,0,1.47,0,2.19,0a1,1,0,0,0,.73-.5.88.88,0,0,0-.13-.81,1.2,1.2,0,0,0-.82-.28c-2.79,0-5.58,0-8.37,0-1,0-1.19-.23-1.19-1.16v-7.5c0-.89.25-1.13,1.16-1.13H71.37c-.07.1-.09.15-.12.18a2.44,2.44,0,0,0,.63,4c.52.3,1,.61,1.55.89a.54.54,0,0,1,.33.56c0,1,0,2,0,3.06,0,.86-.26,1.11-1.13,1.11H61c-.17,0-.39,0-.5,0s-.57.4-.62.65a1.14,1.14,0,0,0,.36.81,1.17,1.17,0,0,0,.72.14H72.58a2.5,2.5,0,0,0,2.81-2.8V73.89c.39.22.69.41,1,.57a.47.47,0,0,1,.29.6,3,3,0,0,0,1.11,3,10.24,10.24,0,0,0,1.37.87c.48.29,1,.56,1.46.85a2.52,2.52,0,0,1-2.05,1c-1,0-2.11,0-3.16,0a.8.8,0,0,0-.84.78.79.79,0,0,0,.74.83c1.29,0,2.59.06,3.87,0a3.87,3.87,0,0,0,2.87-1.79,6.29,6.29,0,0,0,5,.2,4.67,4.67,0,0,1,4.16.4l1.86,1.07a.81.81,0,0,0,1.2-.23.83.83,0,0,0-.41-1.19c-.46-.28-1-.53-1.41-.83a6.57,6.57,0,0,0-6.22-.67,4.09,4.09,0,0,1-3.42-.21c-1.29-.67-2.54-1.43-3.8-2.17a1.5,1.5,0,0,1-.74-1.31l.36.16c.74.42,1.46.88,2.22,1.26a1.08,1.08,0,0,0,.88,0,.81.81,0,0,0,.34-.71,1.38,1.38,0,0,0-.58-.75c-2.88-1.68-5.77-3.34-8.65-5a2.88,2.88,0,0,1-.47-.3A.81.81,0,0,1,73,68.84a1.49,1.49,0,0,1,.55.24c1.76,1,3.51,2,5.26,3,.52.3,1,.25,1.23-.13a.83.83,0,0,0-.27-1.19.82.82,0,0,1-.28-1.08.79.79,0,0,1,1.1-.33.82.82,0,0,0,1.11-.3c.24-.38.12-.77-.33-1.14a.81.81,0,0,1-.27-1.08.79.79,0,0,1,1.1-.32.82.82,0,0,0,1.12-.27c.25-.37.12-.75-.28-1.16a1.14,1.14,0,0,1-.36-.68c0-.65.65-1,1.27-.65,1.42.8,2.81,1.65,4.25,2.43A5.48,5.48,0,0,1,90.8,69a6.16,6.16,0,0,0,2.78,3.09c.55.31,1,.23,1.29-.21S95,71,94.42,70.74ZM66.88,19.24H71.7v2H66.88ZM83.76,34.6a.53.53,0,0,1,0,.43l0,0a2.52,2.52,0,0,1-2.94,0,1,1,0,0,1-.21-.21A2.54,2.54,0,0,1,83.76,34.6ZM78.45,57.24c-.8,0-1-.19-1-1v0c0-.61,0-1.23,0-1.83a2.28,2.28,0,0,1,.36-1,1.41,1.41,0,0,0,0-1.82,1.79,1.79,0,0,1,0-2.27,1.35,1.35,0,0,0,0-1.81,1.81,1.81,0,0,1,0-2.27,1.31,1.31,0,0,0,0-1.77,1.65,1.65,0,0,1-.39-1.12c0-.82,0-1.64,0-2.46a.71.71,0,0,1,.5-.77c.7-.28,1.38-.61,2.08-.87a.84.84,0,0,0,.61-1c0-.21,0-.42,0-.7a5,5,0,0,0,3.27,0c0,.34,0,.64,0,.93a.63.63,0,0,0,.42.62c.77.31,1.53.67,2.31,1a.63.63,0,0,1,.45.63c0,1,0,2,0,2.93a.92.92,0,0,1-1,1H79.9V45h6.15a.9.9,0,0,1,1,.89,2.32,2.32,0,0,1-.2,1.44.65.65,0,0,1-.66.39c-2,0-4,0-6,0H79.9V49.1h6.15a.89.89,0,0,1,1,.89,2.34,2.34,0,0,1-.2,1.44.67.67,0,0,1-.66.39H79.9v1.36h6.15a.93.93,0,0,1,1,1c0,.71,0,1.41,0,2.12,0,.1,0,.2,0,.3,0,.44-.28.67-.79.68s-.92,0-1.38,0Z" transform="translate(-7.68 -7.68)"/><path d="M98.42,56a2.57,2.57,0,0,1-2.26,2.49,14.12,14.12,0,0,1-3.25.07,3,3,0,0,1-1.13-.5,1.12,1.12,0,0,0-1-.13.46.46,0,0,1-.38-.06,4.57,4.57,0,0,1-.36-.29l-.6-.52a3.06,3.06,0,0,1,2.08-.53,3,3,0,0,1,1.39.58,1.19,1.19,0,0,0,.59.17c.59,0,1.17,0,1.76,0a1.53,1.53,0,0,0,1.57-1.63c-.07-.79,0-1.59,0-2.42H90.39V51.82h6.4V50.47H90.4V49.11h6.4V47.76H90.39V46.38h6.52l-.38-1.24A5.66,5.66,0,0,1,96,42.65a11.59,11.59,0,0,1,.45-1.7H90.38V39.61H96.8V38.24H90.39V36.88h6.45c0-.47-.07-.89-.11-1.34H90.4V34.18h5.89a8.46,8.46,0,0,0-.62-1.1c-.71-.89-1.44-1.75-2.19-2.61a2.08,2.08,0,0,1-.7-1.7,17.63,17.63,0,0,0,0-2.06H89.52V28a3.41,3.41,0,0,0,0,.64,2.17,2.17,0,0,1-.85,2,17.37,17.37,0,0,0-1.24,1.46c-.23.28-.44.58-.67.85a.32.32,0,0,1-.27.1c-.41-.18-.8-.38-1.27-.6.32-.42.59-.8.89-1.16a14,14,0,0,1,1.34-1.53,1.77,1.77,0,0,0,.47-1.53c0-.69,0-1.38,0-2.07s.22-.83.74-.83c1.66,0,3.33,0,5,0,.51,0,.72.27.73.79a18.75,18.75,0,0,1,0,2.25A1.92,1.92,0,0,0,95,29.9l1.26,1.43a9.22,9.22,0,0,1,1.81,3,5.29,5.29,0,0,1,.31,1.62c0,1.47,0,2.94,0,4.41a5.29,5.29,0,0,1-.41,1.3,3.62,3.62,0,0,0,.11,2.9,4.19,4.19,0,0,1,.36,1.68C98.43,49.46,98.42,52.71,98.42,56Z" transform="translate(-7.68 -7.68)"/><rect x="53.59" y="31.25" width="1.54" height="6.06"/><path d="M62.85,32.19,61.29,32a4.63,4.63,0,0,1,.14-.79,7.29,7.29,0,0,1,1.36-2.45,5.8,5.8,0,0,1,.55-.56.31.31,0,0,1,.31,0c.34.25.65.52,1,.81A5.81,5.81,0,0,0,62.85,32.19Z" transform="translate(-7.68 -7.68)"/><path d="M65.72,28.25l-.9-1.13,2-.82.51,1.29Z" transform="translate(-7.68 -7.68)"/><rect x="53.58" y="28.55" width="1.55" height="1.3"/><path d="M79.05,42.28v-2H80.6v2Z" transform="translate(-7.68 -7.68)"/><text class="cls-2" transform="translate(19.08 97.4)"><tspan class="cls-3">P</tspan><tspan x="5.8" y="0">enjualan Bahan DUP</tspan></text><text class="cls-4" transform="translate(19.55 106.87)"><tspan class="cls-5">P<tspan class="cls-6" x="5.42" y="0">enjualan bahan baku </tspan></tspan><tspan x="23.37" y="8.62">daur ulang</tspan></text></svg>