<svg id="Layer_1" data-name="Layer 1" xmlns="http://www.w3.org/2000/svg" viewBox="0 0 128 128"><defs><style>.cls-1{fill:#fff;}.cls-2{font-size:10.04px;font-family:Roboto-Bold, Roboto;font-weight:700;}.cls-2,.cls-4{fill:#0c0d0e;}.cls-3{letter-spacing:0.01em;}.cls-4{font-size:8.61px;font-family:Roboto-Regular, Roboto;}</style></defs><rect class="cls-1" width="128" height="128" rx="9.57"/><path d="M96.83,30.25l.36.17a2.43,2.43,0,0,1,1.65,2.28c0,2.39,0,4.79,0,7.18a2.51,2.51,0,0,1-2.28,2.46,1.42,1.42,0,0,1-.46,0A5.59,5.59,0,0,0,92,43.56c-1.91,1.31-3.92,2.48-5.89,3.71l-.5.28.88-5.18h-1.9a2.67,2.67,0,0,1-3-3c0-2,0-3.92,0-5.87a2.94,2.94,0,0,1,2.1-3.26ZM88.51,40.63l-.28,1.67c-.09.54-.18,1.09-.29,1.72l.52-.28c.93-.58,1.91-1.1,2.78-1.76A6.29,6.29,0,0,1,96,40.61c.83.1,1.14-.27,1.14-1.1V33.12c0-.85-.29-1.13-1.13-1.14H84.44c-.87,0-1.14.27-1.14,1.12v6.39c0,.88.27,1.13,1.16,1.14Z" transform="translate(-8.1 -9.28)"/><path d="M88.79,77H70.3l1.34,1.23c-1.57,1.44-3,2.79-4.51,4.12A5.83,5.83,0,0,1,63,83.89a5.52,5.52,0,0,1-3.9-1.54c-2.74-2.69-5.45-5.42-8.17-8.13l-3.63-3.63a6,6,0,0,1,0-8.87L50.94,58l6.4,6.4c-.1.11-.2.24-.32.35l-2.89,2.89a.93.93,0,0,0,0,1.54L56.9,72c.15-.44.27-.79.41-1.15A5.93,5.93,0,0,1,62,66.92c1.89-.36,3.77-.7,5.84-1.08-.19-.26-.28-.49-.45-.6A8.91,8.91,0,0,1,63.61,60a.77.77,0,0,0-.4-.45,3.46,3.46,0,0,1-2.42-3.43c0-2,0-4,0-6A11.25,11.25,0,0,1,83.07,48a13.73,13.73,0,0,1,.22,2.4c0,3.3,0,6.6,0,9.9a2.61,2.61,0,0,1-2.9,2.87,2.37,2.37,0,0,0-2.3.93,7.54,7.54,0,0,1-1.35,1.14,2.7,2.7,0,0,0-.37.5,2.1,2.1,0,0,0,.54.27c1.73.33,3.47.62,5.2,1a5.9,5.9,0,0,1,4.68,4c.66,1.89,1.27,3.8,1.91,5.7A3.22,3.22,0,0,1,88.79,77ZM65.16,71.87c1,1,2,2,3,3a1.11,1.11,0,0,0,.87.36H86.41c-.44-1.33-.83-2.57-1.28-3.8a4.22,4.22,0,0,0-3.35-2.83c-1.87-.35-3.74-.69-5.61-1a.88.88,0,0,0-.67.23c-1.06,1-2.08,2.06-3.12,3.1-.11.11-.23.2-.37.33-1.16-1.16-2.28-2.31-3.43-3.43a.94.94,0,0,0-.67-.24q-2.8.48-5.61,1a4.27,4.27,0,0,0-3.38,2.87c-.19.51-.34,1-.52,1.54a.49.49,0,0,0,.16.63c.47.44.91.91,1.37,1.37.65.65,1,.66,1.69,0ZM81.45,53.15a30.44,30.44,0,0,0,0-4.38,9,9,0,0,0-6-7.49,9.06,9.06,0,0,0-9.55,1.66c-3.23,2.68-3.62,6.33-3.27,10.22l.78-.31.05-1A10,10,0,0,0,72,48a10,10,0,0,0,8.65,3.86v1ZM72,50.54a11.4,11.4,0,0,1-6.9,3.05c0,1.44,0,2.82,0,4.19a6.9,6.9,0,0,0,7.57,7,5.82,5.82,0,0,0,3.75-1.69H72.08V61.39c1.84,0,3.64,0,5.44,0a.73.73,0,0,0,.78-.51A7.24,7.24,0,0,0,79,58c0-1.31,0-2.62,0-3.93,0-.37-.14-.48-.48-.51a10.75,10.75,0,0,1-5-1.82C73,51.35,72.54,50.94,72,50.54ZM48.77,62.68a4.34,4.34,0,0,0-.25,6.71q3,3,6,6c1.81,1.81,3.62,3.64,5.44,5.44a4.34,4.34,0,0,0,6.54-.4l-3.91-3.93c-1.43,1-2.65,1-3.71-.09q-3.08-3.06-6.14-6.15a2.48,2.48,0,0,1-.59-2.84,8.83,8.83,0,0,1,.5-.86ZM69,78.3l-4-4-1,.92,4,4ZM54.84,64.48l-3.9-3.92-.83.8L54,65.3Zm14.82,1.86L72,68.66l2.32-2.32a19.62,19.62,0,0,1-2.26.24A23.49,23.49,0,0,1,69.66,66.34Zm10.37-5c1.46.22,1.7-.4,1.43-2.14-.34.2-.79.31-.94.58A7.13,7.13,0,0,0,80,61.35Zm-16.64-3.7V54.8A1.63,1.63,0,0,0,63.39,57.65Zm17.32,0a1.72,1.72,0,0,0,.83-1.6,1.58,1.58,0,0,0-.83-1.33Z" transform="translate(-8.1 -9.28)"/><path d="M48.38,54.8l-3-5.06,1.48-.89,1.61,2.67c2.17-8,6.89-13.69,14.47-16.86a23.81,23.81,0,0,1,16.31-.75l-.49,1.62c-7.92-2.11-15.1-.75-21.39,4.55a21.86,21.86,0,0,0-7.12,11.6l2.35-1.4.88,1.48Z" transform="translate(-8.1 -9.28)"/><path d="M93.36,49.77l-1.54,2.54-1.48-.87,3-5.07,5.06,3-.89,1.48L95.07,49.4a24.56,24.56,0,0,1-4.18,22.95l-1.34-1.09A22.81,22.81,0,0,0,93.36,49.77Z" transform="translate(-8.1 -9.28)"/><path d="M95.36,35.41H85V33.74H95.36Z" transform="translate(-8.1 -9.28)"/><path d="M91.91,37.2v1.67H85V37.2Z" transform="translate(-8.1 -9.28)"/><path d="M95.37,37.19v1.69H93.71V37.19Z" transform="translate(-8.1 -9.28)"/><text class="cls-2" transform="translate(46.01 93.73)">Suppo<tspan class="cls-3" x="28.87" y="0">r</tspan><tspan x="32.49" y="0">t</tspan></text><text class="cls-4" transform="translate(31.81 104.7)">Whatshaap Link.</text></svg>