<svg id="Layer_1" data-name="Layer 1" xmlns="http://www.w3.org/2000/svg" viewBox="0 0 128 128"><defs><style>.cls-1{fill:#fff;}.cls-2{font-size:9.45px;font-family:Roboto-Bold, Roboto;font-weight:700;}.cls-2,.cls-4{fill:#0c0d0e;}.cls-3{letter-spacing:-0.04em;}.cls-4{font-size:8.86px;font-family:Roboto-Regular, Roboto;}.cls-5{letter-spacing:-0.01em;}</style></defs><rect class="cls-1" width="128" height="128" rx="9.57"/><path d="M104.35,26.48A14.24,14.24,0,0,0,86.47,17.2a13.83,13.83,0,0,0-8.38,7.07c-2.44,4.82-2.09,9.58.62,14.3h-22V67.05l-2.17.61V43.2a3.32,3.32,0,0,0-3.57-3.56c-3.48,0-7,0-10.43,0a4.42,4.42,0,0,0-1.41.21,3.29,3.29,0,0,0,1.14,6.38c3.78,0,7.56,0,11.33,0h.74v.93c0,7.73,0,15.45,0,23.18,0,1.87.22,3.57,1.83,4.76-2.21,2.84-2.39,5.42-.55,7.65a5.45,5.45,0,0,0,6.77,1.36,5.35,5.35,0,0,0,2.8-3.63A5.68,5.68,0,0,0,62.23,76h23a5.67,5.67,0,0,0-1,4.46,5.48,5.48,0,1,0,5.13-6.68H56.61a2.23,2.23,0,0,1-2.1-2,2.2,2.2,0,0,1,1.71-2.34,4.26,4.26,0,0,1,1-.06H91.71a5.52,5.52,0,0,0,5.66-3.91l1.86-5c.08-.21.14-.42.23-.67l-2-.75c-.11.26-.2.47-.28.68-.65,1.74-1.28,3.48-2,5.2a3.13,3.13,0,0,1-3.32,2.13v-22a14.13,14.13,0,0,0,10.7-6.29A13.79,13.79,0,0,0,104.35,26.48Zm-52,17.57H40.42c-.81,0-1.3-.43-1.29-1.1s.49-1.09,1.3-1.09H50.65c1.35,0,1.67.32,1.65,1.65ZM89.68,76a3.3,3.3,0,1,1-3.32,3.32A3.31,3.31,0,0,1,89.68,76ZM57.81,76a3.3,3.3,0,1,1-3.31,3.26A3.32,3.32,0,0,1,57.81,76ZM69.94,40.79h8.7v4.36h-8.7ZM89.62,67.11H59V40.76h8.71v6.55H80.83V41.38A38.64,38.64,0,0,0,85,43.86a37.38,37.38,0,0,0,4.63,1.44ZM97.5,40.84h0A11.34,11.34,0,0,1,90.89,43a10.19,10.19,0,0,1-1.24-.07,12.42,12.42,0,0,1-2.19-.42v0a10.78,10.78,0,0,1-2.2-1v0a11.93,11.93,0,0,1-6.44-12.65,12.09,12.09,0,1,1,18.68,12Z" transform="translate(-8.43 -7.73)"/><path d="M87.41,60.52H76.51V58.41h10.9Z" transform="translate(-8.43 -7.73)"/><path d="M78.66,62.8v2.1H76.52V62.8Z" transform="translate(-8.43 -7.73)"/><path d="M80.91,62.79H83v2.12H80.91Z" transform="translate(-8.43 -7.73)"/><path d="M87.43,62.79v2.12H85.31V62.79Z" transform="translate(-8.43 -7.73)"/><path d="M101,31.4c0,.4-.09.8-.16,1.19a10.17,10.17,0,0,1-5.3,7.3,9.69,9.69,0,0,1-5.27,1.19,10.1,10.1,0,0,1-8.66-5.47,9.73,9.73,0,0,1-1.2-4.76.81.81,0,0,1,.41-.75.78.78,0,0,1,.82,0,.83.83,0,0,1,.38.76,8,8,0,0,0,.63,3.17,8.5,8.5,0,0,0,6.65,5.31,8.19,8.19,0,0,0,6.17-1.31,8.43,8.43,0,0,0,3.84-6.15A8.26,8.26,0,0,0,97.94,26a8.48,8.48,0,0,0-6.15-3.85c-.34,0-.68-.06-1-.07a.83.83,0,0,1-.88-.69.8.8,0,0,1,.6-.9l0,0h.77l.15,0a9.56,9.56,0,0,1,4.08,1.17,10.15,10.15,0,0,1,5.3,7.3c.07.39.11.79.16,1.19Z" transform="translate(-8.43 -7.73)"/><path d="M91.49,30h2.37a.8.8,0,1,1,0,1.6H91.49v2.34a.81.81,0,1,1-1.61,0V31.6h-2.4a.77.77,0,0,1-.72-.42.76.76,0,0,1,0-.82.81.81,0,0,1,.72-.37c.7,0,1.41,0,2.11,0h.25V27.58a.81.81,0,0,1,.67-.79.78.78,0,0,1,.86.47,1.42,1.42,0,0,1,.08.41Z" transform="translate(-8.43 -7.73)"/><path d="M85.18,23.81a2.92,2.92,0,0,1-.26.46c-.24.27-.5.52-.76.77a.8.8,0,0,1-1.14,0,.78.78,0,0,1,0-1.15,11.36,11.36,0,0,1,.86-.84.72.72,0,0,1,.84-.1A.86.86,0,0,1,85.18,23.81Z" transform="translate(-8.43 -7.73)"/><path d="M86.55,23a.79.79,0,0,1-.79-.58.76.76,0,0,1,.37-.9,10.4,10.4,0,0,1,1.24-.51A.79.79,0,0,1,88,22.47c-.43.22-.88.38-1.33.56A.35.35,0,0,1,86.55,23Z" transform="translate(-8.43 -7.73)"/><path d="M82.06,25.85a.8.8,0,0,1,.83,1,10.41,10.41,0,0,1-.49,1.2.8.8,0,0,1-1.46-.61,12.39,12.39,0,0,1,.49-1.19A.72.72,0,0,1,82.06,25.85Z" transform="translate(-8.43 -7.73)"/><text class="cls-2" transform="translate(28.24 98.22)"><tspan class="cls-3">T</tspan><tspan x="5.04" y="0">ambah Supplier</tspan></text><text class="cls-4" transform="translate(13.87 107.96)">Laporkan masalah mesin<tspan x="21.64" y="8.86">atau </tspan><tspan class="cls-5" x="41.6" y="8.86">k</tspan><tspan x="46.05" y="8.86">endaran</tspan></text></svg>