<svg id="Layer_1" data-name="Layer 1" xmlns="http://www.w3.org/2000/svg" viewBox="0 0 128 128"><defs><style>.cls-1{fill:#fff;}.cls-2{font-size:11.09px;font-family:Roboto-Bold, Roboto;font-weight:700;}.cls-2,.cls-4{fill:#0c0d0e;}.cls-3{letter-spacing:-0.04em;}.cls-4{font-size:8.53px;font-family:Roboto-Regular, Roboto;}.cls-5{letter-spacing:-0.06em;}</style></defs><rect class="cls-1" width="128" height="128" rx="9.57"/><path d="M67.59,55.41l-3.88-3.89a10,10,0,0,1-.75,1c-.66.69-1,.79-1.37.43s-.25-.77.38-1.4l1.52-1.51-2-2.16L47.94,61.49l2.15,2,.42-.4,6.94-6.95c.16-.16.31-.39.49-.43a1.11,1.11,0,0,1,.84.11,1.06,1.06,0,0,1,.08.82c0,.18-.27.33-.43.49L51.7,63.83,53.78,66c.62.64.74,1,.36,1.33-.6.49-1,0-1.33-.38-.61-.61-1.2-1.23-1.84-1.82-.15-.14-.44-.13-.67-.21a3.58,3.58,0,0,1-1.23-.42c-.76-.64-1.42-1.39-2.16-2.13-1,.65-1.79.16-2.53-.61-1.62-1.69-3.31-3.32-4.94-5a1.24,1.24,0,0,1-.35-1c.1-.44.53-.39.94-.31.19,0,.47-.16.63-.33q4.64-4.6,9.24-9.24l5.25-5.26c.25-.25.51-.45.3-.9a.74.74,0,0,1,.27-.65,1,1,0,0,1,.73,0c.15,0,.26.22.39.35,1.7,1.7,3.39,3.42,5.11,5.11a1.67,1.67,0,0,1,.52,2.07c-.06.13.07.4.19.53.59.63,1.25,1.2,1.8,1.86a1.62,1.62,0,0,1,.42,1.1,1,1,0,0,0,.35,1c1.13,1.11,2.24,2.25,3.34,3.36.09,0,.15,0,.17,0,2.38-1.92,5.18-2.37,8.11-2.3A1.42,1.42,0,0,0,78,51.69c1.07-1.12,2.18-2.21,3.28-3.3a.9.9,0,0,0,.31-.84A1.68,1.68,0,0,1,82,46.38c.65-.75,1.4-1.42,2.13-2.16-.62-1-.22-1.77.57-2.49s1.45-1.42,2.16-2.15c.33-.34.7-.55,1.09-.17s.21.78-.11,1.11c-.89.89-1.79,1.76-2.64,2.6L100.65,58.6c.68-.69,1.43-1.46,2.19-2.22.2-.2.39-.48.64-.56a1.06,1.06,0,0,1,.87.08.88.88,0,0,1,0,.85c-.93,1-1.91,2-2.91,2.92-.47.44-.94.41-1.92,0l-2,2.07a1.35,1.35,0,0,1-1.42.47.66.66,0,0,0-.51.13q-4.72,4.71-9.42,9.44s0,.08-.09.23c.41.39.85.82,1.31,1.23a3.11,3.11,0,0,1,1.1,3.56,3,3,0,0,1-3,2c-.45,2.37-1.2,3.13-3.07,3.28a16.14,16.14,0,0,1-1.2,2.39,2.72,2.72,0,0,1-2.35.91,6.57,6.57,0,0,1-.07.67,2.89,2.89,0,0,1-2,2.44,2.86,2.86,0,0,1-3.06-.68c-.59-.57-1.13-1.18-1.83-1.91-.66.71-1.22,1.39-1.86,2a3,3,0,0,1-4.94-1.46,4.69,4.69,0,0,1-.09-.72,16.5,16.5,0,0,1-2.38-1.19,2.7,2.7,0,0,1-.92-2.38,3.29,3.29,0,0,1-2.4-.9,3.22,3.22,0,0,1-.9-2.38,3.79,3.79,0,0,0-.45-.07,3,3,0,0,1-2-5c.57-.63,1.22-1.21,1.91-1.88-.27-.27-.49-.5-.72-.72s-.49-.72-.13-1.11.71-.21,1,.09a2.24,2.24,0,0,0,.5.43.78.78,0,0,0,.57.09c2.36-.86,4.12.18,4.49,2.69l.07.28a2.92,2.92,0,0,1,2.69,1.4,10.75,10.75,0,0,1,.52,1.41c.09.2.28.45.47.49a3,3,0,0,1,2.8,3,1,1,0,0,0,.07.21l.7.14a3,3,0,0,1,2.27,4.18.77.77,0,0,0,.2,1c.42.39.79.84,1.21,1.23a1.65,1.65,0,0,0,2.37.08,1.6,1.6,0,0,0-.06-2.37c-1.32-1.34-2.66-2.65-4-4-.64-.64-.75-1-.41-1.4s.77-.25,1.39.37c1.35,1.35,2.68,2.7,4,4a1.67,1.67,0,0,0,2.07.26,1.59,1.59,0,0,0,.65-1.86A2.57,2.57,0,0,0,80,81c-1.33-1.36-2.67-2.7-4-4-.31-.31-.52-.63-.29-1s.78-.43,1.24,0c1.35,1.34,2.69,2.68,4,4a1.89,1.89,0,0,0,1.55.73,1.53,1.53,0,0,0,1.38-1,1.61,1.61,0,0,0-.39-1.83l-3.61-3.62-.7-.71c-.35-.34-.46-.73-.08-1.09s.73-.21,1.05.11c1.35,1.35,2.68,2.7,4,4a3.57,3.57,0,0,0,.83.63,1.51,1.51,0,0,0,1.87-.38,1.61,1.61,0,0,0,.14-2,3.57,3.57,0,0,0-.48-.55L75,62.8a.77.77,0,0,0-.85-.3,4.09,4.09,0,0,1-3.57-.74.47.47,0,0,0-.73.08q-.72.77-1.5,1.5A3.05,3.05,0,1,1,64,59C65.15,57.83,66.33,56.67,67.59,55.41Zm15-6.29c-.1.09-.26.21-.39.34-1.2,1.18-2.37,2.39-3.6,3.53a2.09,2.09,0,0,1-1.15.49c-.92.1-1.85.06-2.78.11A8.59,8.59,0,0,0,69,56c-1.33,1.28-2.61,2.59-3.91,3.89a1.64,1.64,0,1,0,2.32,2.3c.72-.71,1.43-1.44,2.16-2.15a.74.74,0,0,1,1.24,0C72.63,61.93,75,61.43,76,59c.19-.48.43-.88,1-.65s.51.7.29,1.12c-.38.76-.82,1.49-1.18,2.14l9,9.09,9.49-9.5Zm16,9.73L85,45.25l-1.93,2L96.49,60.76ZM62.22,73.5A1.84,1.84,0,0,0,61.16,72a1.5,1.5,0,0,0-1.77.3c-.82.77-1.61,1.57-2.39,2.38A1.64,1.64,0,0,0,57,77a1.62,1.62,0,0,0,2.32,0c.8-.76,1.59-1.53,2.33-2.35A5,5,0,0,0,62.22,73.5Zm4.11,12a1.72,1.72,0,0,0,1,1.7,1.53,1.53,0,0,0,1.78-.3c.83-.79,1.65-1.6,2.44-2.43a1.6,1.6,0,0,0,0-2.32,1.63,1.63,0,0,0-2.32,0c-.78.75-1.56,1.51-2.28,2.31A4.53,4.53,0,0,0,66.33,85.53Zm.53-7.11a3.53,3.53,0,0,0-.93.51c-.83.75-1.62,1.56-2.39,2.38a1.58,1.58,0,0,0,0,2.27,1.55,1.55,0,0,0,2.21.11c.91-.83,1.78-1.72,2.62-2.62a1.47,1.47,0,0,0,.2-1.73A1.69,1.69,0,0,0,66.86,78.42Zm-1.34-1.59a1.89,1.89,0,0,0-1-1.55,1.53,1.53,0,0,0-1.83.32q-1.2,1.14-2.34,2.34a1.63,1.63,0,1,0,2.3,2.3c.78-.75,1.55-1.5,2.28-2.3A6,6,0,0,0,65.52,76.83Z" transform="translate(-8.92 -6.07)"/><path d="M71.87,47.33c.1-.1.13-.11.13-.13.48-1.58,1.66-2.11,3.18-2.55a10.79,10.79,0,0,0,7.69-10.91A11,11,0,0,0,71.42,23.28,11.32,11.32,0,0,0,67,24.41c-.4.19-.79.21-1-.26a.68.68,0,0,1,.39-1,5.24,5.24,0,0,1,.48-.23A12.33,12.33,0,0,1,84,36.4c-1,5.26-4.25,8.56-9.44,9.88a1.18,1.18,0,0,0-.94.78,6.45,6.45,0,0,1-.47.95,1.38,1.38,0,0,1-2.47,0c-.52-1.32-1.47-1.7-2.7-2.1a12.32,12.32,0,0,1-6.21-18.76L62,26.9A.71.71,0,0,1,63,26.7c.4.27.29.62.1,1a21.78,21.78,0,0,0-1.6,3.11,10.88,10.88,0,0,0,8,14.11,2.3,2.3,0,0,1,1.94,1.56A8.82,8.82,0,0,0,71.87,47.33Z" transform="translate(-8.92 -6.07)"/><path d="M65.21,25.43c-.27.19-.55.52-.81.51s-.57-.38-.62-.65a.53.53,0,0,1,.63-.64c.28.05.53.32.8.48Z" transform="translate(-8.92 -6.07)"/><path d="M61,54.5c-.28.18-.57.52-.84.5s-.54-.42-.59-.69a.52.52,0,0,1,.66-.6,2.74,2.74,0,0,1,.78.49Z" transform="translate(-8.92 -6.07)"/><path d="M56.33,68.87c-.26.17-.51.44-.79.49s-.65-.24-.63-.66.24-.71.65-.63.52.33.77.51Z" transform="translate(-8.92 -6.07)"/><path d="M73.45,35.26v1.19c0,.8,0,1.6,0,2.4a1.52,1.52,0,1,1-3,0v-3.6H66.84a1.52,1.52,0,1,1,0-3h3.6V28.61a1.51,1.51,0,1,1,3,0c0,1.14,0,2.28,0,3.42v.22h3.62a1.52,1.52,0,1,1,0,3H73.45Zm-.88-4.65h0v-2a.63.63,0,1,0-1.25.06c0,1.3,0,2.6,0,3.9,0,.44-.13.56-.57.56h-3.8a1.27,1.27,0,0,0-.28,0,.62.62,0,0,0-.47.78.63.63,0,0,0,.68.45h3.91a.46.46,0,0,1,.53.53c0,.54,0,1.09,0,1.63,0,.77,0,1.54,0,2.32a.64.64,0,0,0,.47.66.62.62,0,0,0,.78-.65V34.91c0-.38.16-.54.54-.54h4a.58.58,0,0,0,.57-.53.6.6,0,0,0-.41-.67,1.11,1.11,0,0,0-.36,0H73.11c-.39,0-.54-.15-.54-.55Z" transform="translate(-8.92 -6.07)"/><path d="M66.72,41.12a1.68,1.68,0,0,1-.3-.15A8.93,8.93,0,0,1,63,35.39c-.09-.52-.11-1.06-.15-1.6a.44.44,0,1,1,.88,0A8.21,8.21,0,0,0,67,40.29a.46.46,0,0,1,.16.51A.5.5,0,0,1,66.72,41.12Z" transform="translate(-8.92 -6.07)"/><path d="M68.78,41.34a.48.48,0,0,1,.46.44.45.45,0,0,1-.44.45.45.45,0,1,1,0-.89Z" transform="translate(-8.92 -6.07)"/><text class="cls-2" transform="translate(29.02 100.56)"><tspan class="cls-3">T</tspan><tspan x="5.91" y="0">ambah Mitra</tspan></text><text class="cls-4" transform="translate(25.39 109.94)"><tspan class="cls-5">T</tspan><tspan x="4.63" y="0">ambah Mitra GESN</tspan></text></svg>