<?xml version="1.0" standalone="no"?>
<!DOCTYPE svg PUBLIC "-//W3C//DTD SVG 20010904//EN"
 "http://www.w3.org/TR/2001/REC-SVG-20010904/DTD/svg10.dtd">
<svg version="1.0" xmlns="http://www.w3.org/2000/svg"
 width="150.000000pt" height="150.000000pt" viewBox="0 0 150.000000 150.000000"
 preserveAspectRatio="xMidYMid meet">
<metadata>
Created by potrace 1.14, written by Peter Selinger 2001-2017
</metadata>
<g transform="translate(0.000000,150.000000) scale(0.100000,-0.100000)"
fill="#000000" stroke="none">
<path d="M745 1324 c-5 -1 -22 -5 -37 -8 -52 -12 -93 -57 -178 -201 l-24 -40
51 47 c78 72 125 92 213 93 63 0 83 -4 128 -28 28 -15 52 -24 52 -20 0 14 -74
106 -101 125 -25 19 -84 37 -104 32z"/>
<path d="M700 1191 c-65 -20 -122 -65 -179 -141 -19 -25 -42 -52 -53 -62 -17
-16 -17 -19 -1 -86 19 -79 10 -77 116 -29 38 17 63 33 57 37 -23 14 82 225
124 252 6 4 20 14 31 22 19 14 17 15 -25 15 -25 0 -56 -4 -70 -8z"/>
<path d="M840 1119 c-1 -8 -3 -46 -6 -86 -5 -59 -4 -71 9 -70 17 2 102 -109
128 -168 10 -23 20 -56 21 -74 3 -47 13 -47 37 2 38 78 32 182 -15 288 -16 35
-28 69 -26 76 3 12 -42 28 -110 39 -29 5 -38 3 -38 -7z"/>
<path d="M1055 965 c19 -55 19 -171 -1 -230 -18 -52 -73 -112 -126 -138 -37
-18 -34 -20 37 -17 82 3 149 40 180 100 23 45 11 121 -35 209 -53 103 -75 132
-55 76z"/>
<path d="M387 867 c-54 -108 -38 -216 40 -256 49 -25 88 -32 191 -35 91 -2 93
2 11 27 -68 21 -141 74 -176 130 -19 30 -27 60 -32 115 l-6 74 -28 -55z"/>
<path d="M800 781 c0 -11 -107 -38 -181 -47 -30 -3 -74 -1 -99 5 -24 5 -46 8
-48 6 -2 -2 16 -23 40 -48 59 -61 125 -84 254 -88 l100 -4 44 53 c23 29 41 54
39 56 -10 10 -132 76 -140 76 -5 0 -9 -4 -9 -9z"/>
<path d="M763 422 l-33 -3 0 -94 c0 -52 5 -106 12 -120 32 -72 191 -74 229 -4
6 12 12 66 13 120 l2 99 -41 0 -41 0 0 -89 c0 -96 -10 -121 -48 -121 -39 0
-46 19 -46 116 0 51 -3 94 -7 96 -5 2 -23 2 -40 0z"/>
<path d="M1088 422 l-47 -3 2 -132 2 -132 30 -1 c43 -1 53 10 48 56 -2 22 0
40 4 41 92 8 99 10 121 34 27 32 28 74 2 108 -21 27 -67 35 -162 29z m100 -76
c2 -10 0 -22 -5 -27 -12 -12 -53 -20 -54 -11 -10 60 -9 63 24 60 22 -2 33 -9
35 -22z"/>
<path d="M1343 422 c-23 -3 -23 -6 -23 -136 l0 -132 38 1 37 1 3 131 c3 142 2
144 -55 135z"/>
<path d="M180 338 c-18 -46 -40 -106 -50 -134 l-18 -50 41 0 c32 1 41 5 48 24
7 18 16 22 54 22 38 0 47 -4 54 -22 6 -16 17 -22 45 -24 20 -1 38 1 40 5 2 3
-17 62 -43 131 l-46 125 -47 3 -46 3 -32 -83z m94 -41 l14 -47 -29 2 c-32 3
-36 16 -18 67 14 38 15 37 33 -22z"/>
<path d="M434 288 l1 -133 83 1 c47 0 93 6 107 14 49 26 70 116 41 184 -23 54
-49 66 -146 66 l-86 0 0 -132z m150 62 c4 -4 11 -28 13 -53 4 -37 1 -49 -16
-66 -13 -13 -32 -21 -44 -19 -20 3 -22 10 -24 68 -2 36 -1 70 2 77 4 13 54 8
69 -7z"/>
</g>
</svg>
